<mxfile host="app.diagrams.net" modified="2020-12-10T02:16:56.673Z" agent="5.0 (Windows NT 10.0; Win64; x64) AppleWebKit/537.36 (KHTML, like Gecko) Chrome/80.0.3987.163 Safari/537.36" etag="RfEaE-mmbKa3Ww7mQpBN" version="13.11.0" type="github">
  <diagram id="C5RBs43oDa-KdzZeNtuy" name="Page-1">
    <mxGraphModel dx="2009" dy="1751" grid="1" gridSize="10" guides="1" tooltips="1" connect="1" arrows="1" fold="1" page="1" pageScale="1" pageWidth="827" pageHeight="1169" background="#F1FAEE" math="0" shadow="0">
      <root>
        <mxCell id="WIyWlLk6GJQsqaUBKTNV-0" />
        <mxCell id="WIyWlLk6GJQsqaUBKTNV-1" parent="WIyWlLk6GJQsqaUBKTNV-0" />
        <UserObject label="报表1：生成上链统计报表" id="hnCcET9oKe7-5iIsfZf4-159">
          <mxCell style="edgeStyle=orthogonalEdgeStyle;curved=0;rounded=1;sketch=0;orthogonalLoop=1;jettySize=auto;html=1;strokeColor=#457B9D;fillColor=#A8DADC;fontColor=#1D3557;" edge="1" parent="WIyWlLk6GJQsqaUBKTNV-1" source="WIyWlLk6GJQsqaUBKTNV-3" target="hnCcET9oKe7-5iIsfZf4-158">
            <mxGeometry relative="1" as="geometry" />
          </mxCell>
        </UserObject>
        <mxCell id="hnCcET9oKe7-5iIsfZf4-161" value="报表2：生成上链详细报表" style="edgeStyle=orthogonalEdgeStyle;curved=0;rounded=1;sketch=0;orthogonalLoop=1;jettySize=auto;html=1;strokeColor=#457B9D;fillColor=#A8DADC;fontColor=#1D3557;" edge="1" parent="WIyWlLk6GJQsqaUBKTNV-1" source="WIyWlLk6GJQsqaUBKTNV-3" target="hnCcET9oKe7-5iIsfZf4-198">
          <mxGeometry relative="1" as="geometry">
            <mxPoint x="605" y="300" as="targetPoint" />
          </mxGeometry>
        </mxCell>
        <mxCell id="WIyWlLk6GJQsqaUBKTNV-3" value="每天PM6:00执行定时任务，分省生成前一天的报表文件，以邮件的方式发送" style="rounded=1;whiteSpace=wrap;html=1;fontSize=12;glass=0;strokeWidth=1;shadow=0;fillColor=#A8DADC;strokeColor=#457B9D;fontColor=#1D3557;" parent="WIyWlLk6GJQsqaUBKTNV-1" vertex="1">
          <mxGeometry x="274" y="150" width="130" height="60" as="geometry" />
        </mxCell>
        <mxCell id="hnCcET9oKe7-5iIsfZf4-211" value="" style="edgeStyle=orthogonalEdgeStyle;curved=0;rounded=1;sketch=0;orthogonalLoop=1;jettySize=auto;html=1;strokeColor=#457B9D;fillColor=#A8DADC;fontColor=#1D3557;" edge="1" parent="WIyWlLk6GJQsqaUBKTNV-1" source="WIyWlLk6GJQsqaUBKTNV-11" target="hnCcET9oKe7-5iIsfZf4-210">
          <mxGeometry relative="1" as="geometry" />
        </mxCell>
        <mxCell id="WIyWlLk6GJQsqaUBKTNV-11" value="将两个文件压缩成zip" style="rounded=1;whiteSpace=wrap;html=1;fontSize=12;glass=0;strokeWidth=1;shadow=0;fillColor=#A8DADC;strokeColor=#457B9D;fontColor=#1D3557;" parent="WIyWlLk6GJQsqaUBKTNV-1" vertex="1">
          <mxGeometry x="284" y="1200" width="120" height="40" as="geometry" />
        </mxCell>
        <mxCell id="hnCcET9oKe7-5iIsfZf4-156" style="edgeStyle=orthogonalEdgeStyle;rounded=0;orthogonalLoop=1;jettySize=auto;html=1;labelBackgroundColor=#F1FAEE;strokeColor=#457B9D;fontColor=#1D3557;" edge="1" parent="WIyWlLk6GJQsqaUBKTNV-1" source="hnCcET9oKe7-5iIsfZf4-155" target="WIyWlLk6GJQsqaUBKTNV-3">
          <mxGeometry relative="1" as="geometry" />
        </mxCell>
        <object label="" id="hnCcET9oKe7-5iIsfZf4-155">
          <mxCell style="strokeWidth=3;outlineConnect=0;dashed=0;align=center;fontSize=8;shape=mxgraph.eip.messExp;html=1;verticalLabelPosition=bottom;verticalAlign=top;fillColor=none;strokeColor=#457B9D;fontColor=#1D3557;" vertex="1" parent="WIyWlLk6GJQsqaUBKTNV-1">
            <mxGeometry x="315" y="70" width="48" height="48" as="geometry" />
          </mxCell>
        </object>
        <mxCell id="hnCcET9oKe7-5iIsfZf4-163" value="" style="edgeStyle=orthogonalEdgeStyle;curved=0;rounded=1;sketch=0;orthogonalLoop=1;jettySize=auto;html=1;strokeColor=#457B9D;fillColor=#A8DADC;fontColor=#1D3557;" edge="1" parent="WIyWlLk6GJQsqaUBKTNV-1" source="hnCcET9oKe7-5iIsfZf4-158" target="hnCcET9oKe7-5iIsfZf4-162">
          <mxGeometry relative="1" as="geometry" />
        </mxCell>
        <mxCell id="hnCcET9oKe7-5iIsfZf4-158" value="主要以通过sql的查询方式，统计数据" style="whiteSpace=wrap;html=1;rounded=1;shadow=0;fontColor=#1D3557;strokeColor=#457B9D;strokeWidth=1;fillColor=#A8DADC;glass=0;align=left;" vertex="1" parent="WIyWlLk6GJQsqaUBKTNV-1">
          <mxGeometry x="40" y="280" width="130" height="60" as="geometry" />
        </mxCell>
        <mxCell id="hnCcET9oKe7-5iIsfZf4-200" style="edgeStyle=orthogonalEdgeStyle;curved=0;rounded=1;sketch=0;orthogonalLoop=1;jettySize=auto;html=1;strokeColor=#457B9D;fillColor=#A8DADC;fontColor=#1D3557;" edge="1" parent="WIyWlLk6GJQsqaUBKTNV-1" source="hnCcET9oKe7-5iIsfZf4-160" target="hnCcET9oKe7-5iIsfZf4-194">
          <mxGeometry relative="1" as="geometry" />
        </mxCell>
        <mxCell id="hnCcET9oKe7-5iIsfZf4-160" value="使用线程池结合FutureTask每个省份一个线程，去获取对应省份的状态为终态的数据，订单处理时长直接在sql中计算" style="whiteSpace=wrap;html=1;rounded=1;shadow=0;fontColor=#1D3557;strokeColor=#457B9D;strokeWidth=1;fillColor=#A8DADC;glass=0;" vertex="1" parent="WIyWlLk6GJQsqaUBKTNV-1">
          <mxGeometry x="527.5" y="410" width="155" height="110" as="geometry" />
        </mxCell>
        <mxCell id="hnCcET9oKe7-5iIsfZf4-164" style="edgeStyle=orthogonalEdgeStyle;curved=0;rounded=1;sketch=0;orthogonalLoop=1;jettySize=auto;html=1;entryX=0.5;entryY=0;entryDx=0;entryDy=0;strokeColor=#457B9D;fillColor=#A8DADC;fontColor=#1D3557;" edge="1" parent="WIyWlLk6GJQsqaUBKTNV-1" source="hnCcET9oKe7-5iIsfZf4-162" target="WIyWlLk6GJQsqaUBKTNV-11">
          <mxGeometry relative="1" as="geometry">
            <Array as="points">
              <mxPoint x="105" y="1130" />
              <mxPoint x="344" y="1130" />
            </Array>
          </mxGeometry>
        </mxCell>
        <mxCell id="hnCcET9oKe7-5iIsfZf4-162" value="将统计的数据写入到指定目录的execl" style="whiteSpace=wrap;html=1;rounded=1;shadow=0;fontColor=#1D3557;align=left;strokeColor=#457B9D;strokeWidth=1;fillColor=#A8DADC;glass=0;" vertex="1" parent="WIyWlLk6GJQsqaUBKTNV-1">
          <mxGeometry x="45" y="430" width="120" height="60" as="geometry" />
        </mxCell>
        <mxCell id="hnCcET9oKe7-5iIsfZf4-177" value="Table" style="shape=table;html=1;whiteSpace=wrap;startSize=30;container=1;collapsible=0;childLayout=tableLayout;fontStyle=1;align=center;rounded=0;sketch=0;strokeColor=#457B9D;fillColor=#A8DADC;fontColor=#1D3557;" vertex="1" parent="WIyWlLk6GJQsqaUBKTNV-1">
          <mxGeometry x="-3.25" y="1800" width="470" height="471" as="geometry" />
        </mxCell>
        <mxCell id="hnCcET9oKe7-5iIsfZf4-178" value="" style="shape=partialRectangle;html=1;whiteSpace=wrap;collapsible=0;dropTarget=0;pointerEvents=0;fillColor=none;top=0;left=0;bottom=0;right=0;points=[[0,0.5],[1,0.5]];portConstraint=eastwest;" vertex="1" parent="hnCcET9oKe7-5iIsfZf4-177">
          <mxGeometry y="30" width="470" height="148" as="geometry" />
        </mxCell>
        <mxCell id="hnCcET9oKe7-5iIsfZf4-179" value="&lt;div&gt;每个50W&lt;/div&gt;&lt;div&gt;北京0&lt;/div&gt;&lt;div&gt;上海1&lt;/div&gt;&lt;div&gt;广州2&lt;/div&gt;&lt;div&gt;深圳3&lt;/div&gt;&lt;div&gt;杭州4&lt;/div&gt;&lt;div&gt;100&lt;/div&gt;&lt;div&gt;write:30280&lt;/div&gt;&lt;div&gt;61000&lt;/div&gt;" style="shape=partialRectangle;html=1;whiteSpace=wrap;connectable=0;fillColor=none;top=0;left=0;bottom=0;right=0;overflow=hidden;" vertex="1" parent="hnCcET9oKe7-5iIsfZf4-178">
          <mxGeometry width="157" height="148" as="geometry" />
        </mxCell>
        <mxCell id="hnCcET9oKe7-5iIsfZf4-180" value="&lt;div&gt;上海70W其他50W&lt;/div&gt;&lt;div&gt;北京0&lt;/div&gt;&lt;div&gt;上海1&lt;/div&gt;&lt;div&gt;广州2&lt;/div&gt;&lt;div&gt;深圳3&lt;/div&gt;&lt;div&gt;杭州4&lt;/div&gt;&lt;div&gt;100&lt;/div&gt;&lt;div&gt;write:32006&lt;/div&gt;&lt;div&gt;74360&lt;/div&gt;" style="shape=partialRectangle;html=1;whiteSpace=wrap;connectable=0;fillColor=none;top=0;left=0;bottom=0;right=0;overflow=hidden;" vertex="1" parent="hnCcET9oKe7-5iIsfZf4-178">
          <mxGeometry x="157" width="156" height="148" as="geometry" />
        </mxCell>
        <mxCell id="hnCcET9oKe7-5iIsfZf4-181" value="" style="shape=partialRectangle;html=1;whiteSpace=wrap;connectable=0;fillColor=none;top=0;left=0;bottom=0;right=0;overflow=hidden;" vertex="1" parent="hnCcET9oKe7-5iIsfZf4-178">
          <mxGeometry x="313" width="157" height="148" as="geometry" />
        </mxCell>
        <mxCell id="hnCcET9oKe7-5iIsfZf4-182" value="" style="shape=partialRectangle;html=1;whiteSpace=wrap;collapsible=0;dropTarget=0;pointerEvents=0;fillColor=none;top=0;left=0;bottom=0;right=0;points=[[0,0.5],[1,0.5]];portConstraint=eastwest;" vertex="1" parent="hnCcET9oKe7-5iIsfZf4-177">
          <mxGeometry y="178" width="470" height="145" as="geometry" />
        </mxCell>
        <mxCell id="hnCcET9oKe7-5iIsfZf4-183" value="" style="shape=partialRectangle;html=1;whiteSpace=wrap;connectable=0;fillColor=none;top=0;left=0;bottom=0;right=0;overflow=hidden;" vertex="1" parent="hnCcET9oKe7-5iIsfZf4-182">
          <mxGeometry width="157" height="145" as="geometry" />
        </mxCell>
        <mxCell id="hnCcET9oKe7-5iIsfZf4-184" value="" style="shape=partialRectangle;html=1;whiteSpace=wrap;connectable=0;fillColor=none;top=0;left=0;bottom=0;right=0;overflow=hidden;" vertex="1" parent="hnCcET9oKe7-5iIsfZf4-182">
          <mxGeometry x="157" width="156" height="145" as="geometry" />
        </mxCell>
        <mxCell id="hnCcET9oKe7-5iIsfZf4-185" value="" style="shape=partialRectangle;html=1;whiteSpace=wrap;connectable=0;fillColor=none;top=0;left=0;bottom=0;right=0;overflow=hidden;" vertex="1" parent="hnCcET9oKe7-5iIsfZf4-182">
          <mxGeometry x="313" width="157" height="145" as="geometry" />
        </mxCell>
        <mxCell id="hnCcET9oKe7-5iIsfZf4-186" value="" style="shape=partialRectangle;html=1;whiteSpace=wrap;collapsible=0;dropTarget=0;pointerEvents=0;fillColor=none;top=0;left=0;bottom=0;right=0;points=[[0,0.5],[1,0.5]];portConstraint=eastwest;" vertex="1" parent="hnCcET9oKe7-5iIsfZf4-177">
          <mxGeometry y="323" width="470" height="148" as="geometry" />
        </mxCell>
        <mxCell id="hnCcET9oKe7-5iIsfZf4-187" value="" style="shape=partialRectangle;html=1;whiteSpace=wrap;connectable=0;fillColor=none;top=0;left=0;bottom=0;right=0;overflow=hidden;" vertex="1" parent="hnCcET9oKe7-5iIsfZf4-186">
          <mxGeometry width="157" height="148" as="geometry" />
        </mxCell>
        <mxCell id="hnCcET9oKe7-5iIsfZf4-188" value="" style="shape=partialRectangle;html=1;whiteSpace=wrap;connectable=0;fillColor=none;top=0;left=0;bottom=0;right=0;overflow=hidden;" vertex="1" parent="hnCcET9oKe7-5iIsfZf4-186">
          <mxGeometry x="157" width="156" height="148" as="geometry" />
        </mxCell>
        <mxCell id="hnCcET9oKe7-5iIsfZf4-189" value="" style="shape=partialRectangle;html=1;whiteSpace=wrap;connectable=0;fillColor=none;top=0;left=0;bottom=0;right=0;overflow=hidden;" vertex="1" parent="hnCcET9oKe7-5iIsfZf4-186">
          <mxGeometry x="313" width="157" height="148" as="geometry" />
        </mxCell>
        <mxCell id="hnCcET9oKe7-5iIsfZf4-193" value="" style="shape=image;verticalLabelPosition=bottom;labelBackgroundColor=#ffffff;verticalAlign=top;aspect=fixed;imageAspect=0;image=data:image/png,iVBORw0KGgoAAAANSUhEUgAAArcAAAD2CAYAAADMBq+XAAAgAElEQVR4Ae2d348kx33Y50HIn0D/A0LyFDhvyQACSAImBMcP4gPJJ+aJZPMhYJjEYpwAcvYCEsgDpeGRkCYGHTtmItgwvec7iNZKZ1GmljZlx4593JXN5U1k0hHpMLewJfss0ns83n2Db1VX97eqq7tnZmfmtnc/Awymu+vXtz5Vd/PZmuqZkYjIhQsX5Pr16zxhwBxgDjAHmAPMAeYAc4A5MOg5MEJukXr+sGEOMAeYA8wB5gBzgDlwWuYAcstfZ4P+6+y0/EOkH7ypMAeYA8wB5gBzYDVzALlFbpFb5gBzgDnAHGAOMAeYA6dmDiC3TOZTM5n5i3c1f/HCEY7MAeYAc4A5MOQ5UMnt3t6e8IQBc4A5wBxgDjAHmAPMAebAkOdAJLd6cxkPCEAAAhCAAAQgAAEIDJUAcjvUkSNuCEAAAhCAAAQgAIEGAeS2gYQLEIAABCAAAQhAAAJDJYDcDnXkiBsCEIAABCAAAQhAoEEAuW0g4QIEIAABCEAAAhCAwFAJDExuZ7I7Hsm50Ui2d4aKPI3b9+n09Cft36bPD2V3uiXbB5tul/YgAAEIQAACEDgJBFrl9rvf/a5cvHix9anpm34cTsayVdxZqz0ovFyrYNvn8nFtQm4PZHtrS6a7hyLi5e/cuXMSnlvTXdGUO/E42N6q4gjx6OvW0nY6p9we7sp0K27b88lRsPxM+sF2FfvW1lQc3irZl3F9SdOStqOutqQd7k5la2tbcPYKMAcQgAAEIACBLIFWudUv77106VJWbvW6ps/7uHnzE/mb6z+W6z/+UG7dutUo9smtWy7tR3/7d/LxzZuN9HBBxXI6mYXTjtdNCOOObI+KFcjGBmI92DayOKf8RXSXKRNVMMeJyuAq5K0/1jZRVNGOBdLXpde2t8MfB6ErB7Jt/yhQxlX8vlwly1Gal95KaOdOE9H4qnIhDF4hAAEIQAACEIgItMqt5nrzzTezcqvX53nc+Phj+fYbfyT/9de/Ji/+2iX3/B8XvyEH3/+Lqvif/e935L//5k6Vrnl/57v/Kyu5yG2FbaEDlblKtMqV28UkqV8YFwoom3lDcqsyGaS0XHkN8qpMnPhm4KhY1gxzHdD4y9Vbt/pqRd3yS/tpyklXmo+tO4ZcXFyDAAQgAAEInC0CnXJ7dHQkr7zySiS4eq7X53kEof3OH/yJ/Pn/eV8Ovv+uXPjma05kf/nlV+SXXvbS+5uXv+OEV/O89vt/XImubcNuB9gaFfLWbCJTu3Janr8luqJabxnYGk/kWkte/xFvWDn15TS//4g+rqe5Ytyycuvaqtu3e2l1W0XYyqB9iNsve1uWb9vmMJuMZTQaNZ7jjhXtueQ2FbLy/C0nXPXH9yqG11ry+v4EkVNR26pFMqmnKWmp2JU8XFt1+9Y7tV9hK0O6alrlK8uHbQ7V6mfUhy7B9HH0yq1dgdXjKoBm+Wg8krxzp5V4eIEABCAAAQhAICbQKbeadTabRXKr5/M+VG4vXv5OlP1vrv+dk9ff+Pq35eWvf9sd63YF+wgCbK/pcbRyO5ewljXMkbeWTS2j4jqW3aqrQYBtRDm5ncluEeRYqymkqjeNoarK1O3y23arTMc6iMXMy2eQQn11ohnJnm7N1T2pYfUxCGsZRpSWz1vLppax8qjnSX2u2pzcHsruttkPbAUyjaEMLarb5bd7Yes2Iol08di+huOqUrcloCnkZbqLpd4yoHX3yW2Df1VVLezV2Ji0tN46Qo4gAAEIQAACEFACvXL7ySefyOXLl53g6quez/u49Nu7svOd+MazTz655YT2yp9dlT/+3tvu+Pbt21GVv/Xt35Ovvfq70TU9Wafc2hVWldKwwmpf49XbnNz6kPMrtJp/JFuRNGv+Um4LI8KNni9/oSlaObFMBTU9T8qkYhmdJ3k1dHPjVZvUeQFuSqUW1z6EcrU0q6jqHlkrry63/7aEbbsHNvCL5bZeXK2vt8UR/4EQ6iu3MaQxJKuxmrsq71jZmH0/XCxdaWWTVT11CBxBAAIQgAAEIGAI9Mqt5n3//fed3OrrIo/f/aM35aULO3LjxsdVscO/+qET2tm7P5C3//wv3PFf/fBvqvSjGzfkVy58Xd744/3qWjjYpNzW2xNC6+lrRm7LLQWVBGdXa73M1pJbno/HMm2Ib9qmyDLbEmIhysinNhMJanqelFkkr9atshf2uTa7VF6xgllecu2Yva5puy6bj62W3PJ8OpVpKp1uhdaLpZX+w91tmU5Lsc6IqTYTM/Tx6bXsSmqjvzU/227Zy6rurjTNm0sPdfAKAQhAAAIQgIAnMJfcatbvfe97CzP76x/9rbuZ7De/+ZrojWP7b39ffvVrvy3/7Td+Sz76+yP3DQm/9Otfk1/72m+7NM1z4RuviV774d82v42hKbf1R/jua8I697HOmdf10q+y2tXcgyLskQ0YMnKr2wqqPbsiUUyziexW32JmtiKElVtNK+XYthtaO86rSlH9kXotWlGdThzrFUUnUp3bEubM6xoxq5Nlowfb6SptRm4TSYxiOtyV3ep7sWyfzHEpx/UKrRVEny989K9163GbhDfkNivagaiJQS/ZfiSc/UpxuaWhK62U23ocQ1u8QgACEIAABCBgCcwtt7bQIsd/8f4Hot+QEG4u0+N33/u/VRXv/OAvo/SvXvqm/OAv/1+Vbg8iudU3e3OD1rQoohvMQlqQzXCu2wzivFY0TWulaIZtCU3hzMhtKaqhTNyO31YR0uobxtL2vVhXe3VNSMseziW3pTyFj/+n29tmz62XQit/QQadHEZ5E7ELQZeiGeq3wumzZOS23JsbyqQxqXCGtHoFNW3fi3W9ncGvwrZJbAg3fW3IbctWi6pfpr+2bVdvUrYqo4kdafE4phFyDgEIQAACEICAEli73AbM4Xtuw3n6qjeVpTeWpXk4X5JAy0ftS9Z2OoolEqmSvKjwbhqECnYkwpsOgPYgAAEIQAACAyCwMbkdAItTHKJfveQj7eEOsa7aNlaAh9sdIocABCAAAQisjQByuza0VAwBCEAAAhCAAAQgsGkCyO2midMeBCAAAQhAAAIQgMDaCCC3a0NLxRCAAAQgAAEIQAACmyaA3G6aOO1BAAIQgAAEIAABCKyNAHK7NrRUDAEIQAACEIAABCCwaQLI7aaJ0x4EIAABCEAAAhCAwNoIILdrQ0vFEIAABCAAAQhAAAKbJjBIub198yO5+cHvycdvvyRHe+fdU4/1mqbxgAAEIAABCEAAAhA4mwQGJ7e3fnRVjvael6Mrz+afe8+L5uEBAQhAAAIQgAAEIHD2CAxKbp3YvvnFvNRa2X3zi6dQcHekGI1k5J5jmczO3mSlxxCAAAQgAAEIQKCPwGDk9vbND7MrthdeeEyKh+6VZ568P5bevedFy8z/mMnueCTbO/OUWCTvPPX15ZnJZDyScTDanUJGo0LmCrWvatIhAAEIQAACEIDAKSIwGLnV/bS5rQhPPHyffPD609k0LTP/YxFhXSTv/BG05pxNZBzJrJfdArttRUYCBCAAAQhAAAJnk8Bg5NbdPGa3HpTHjz54T1ZsVYS1TO5xOBnLudHIPbdGhbwlO7Jdnuv1rfFEDrXgbCJTc92v6rbkTeqYhlXWTACzybjcXhC2GfjXamU2LaMrtYnJ7hRmJTfNzzkEIAABCEAAAhA4owQGI7c39ps3kT3ywN0Snro9IV3Z1TKNhxPWQg6aCcm2hJnsFqXkat6dQlSEfbl05VaFdyy71T7YNL3R2EIXnAwjtwsxIzMEIAABCEAAAmeTwKDlVmVW5TaV2nCeldtyhXUrklEd/LyQpqu8WbndKaqV4LAirK9dq7cLTTdWbhfCRWYIQAACEIAABM4ugcHIbdu2hC65bduW4Ifby2wtuYncllsSKkGNVnyTvLqqG7YyzDGXltqWMJ5ItTAs7LmdAzNZIAABCEAAAhA4gwQGI7dtN5R1yW32hrLZRHarG7GspNrjchuCEVZdwe3elhB/08JBEbYwrGJWJTKrK7mR7K6iDeqAAAQgAAEIQAACwycwGLlt+yqwVrnt+Cqwg8LfTOZuHjN7WcMWBF2FvVZuUwjbDKZFIdNqz62Izdt+89kKJ4j7xoRwAxpfA7ZCslQFAQhAAAIQgMApIjAYuVXmZ/tHHE7RrKMrEIAABCAAAQhAYE0EBiW3yoCf313TTKBaCEAAAhCAAAQgcAoIDE5ulfntmx+J7qd1N5ntnZejvfPuWK9pGg8IQAACEIAABCAAgbNJYJByezaHil5DAAIQgAAEIAABCPQRQG77CJEOAQhAAAIQgAAEIDAYAsjtYIaKQCEAAQhAAAIQgAAE+ghEcvsPn3pNeMKAOcAcYA4wB5gDzAHmAHNgqHMAuUXo+YOGOcAcYA4wB5gDzAHmwKmZA8gtk/nUTOah/oVJ3KyOMAeYA8wB5gBzYHVzYJBy+5M/d1ke/c+/IM8+f05+cfqUe+qxXtM0JsjqJggsYckcYA4wB5gDzAHmwJDmwODk9nPnflVe/MpT8tIv/JvsU9M0zyoH4dOf/1N5Va7JU5//HbHHXW18+vN/KC9eE3n1q7+TjWXeerraOOlpn/7Su/KO/Fhe/FKewUmPn/j4z5w5wBxgDjAHmAPDmwOjTz7+a7lw4YLs7e1lJey4g/r623/deVObps/bhkrrr/zCv81KrZVdzbNKwbUiao+74j5pcuvjFnnn1T+UEJsdmDYJ7+pjX9o65TbXByn/AOmLa9H0bFvX3pX7P3/npd0ztiPpxzjXRzsHbPqnv3rNVBD/MdKZ5v7oC0WTcu4Pm2ba/a/+WNY1TrZPHA/vzYgxY8yYA8yBVc2Btcvtz3zxD+WTW7fDu1z0qtc1fZ7O/JN//83siu1T/+oB+Zn7xvIvHvqpSHp1BVfLzFN3Xx4rtPa4q1wQojZpnLeerjYWSXOSsv+njoePrZaRdUroIjEukjfHN4hYG3Nbf668TbfHi+QN5ZYpE8rO+9omik/t6z8z/0mD1hVi0Wuv7sfy6+ahEXXP0HxK0ZrmP5nQP5ZcG06QTTmpP7VwdZp6NL55xmheDuTjDZE5wBxgDjAH7BxYu9xqY7/6+38ZSW040es2mK5j3U9rV2fD8ed++jPyX577l9k0LdNV57xpVkTtcVf5IBRtb+Lz1tPVxiJpKkKViLgtE7Xcaj0qHCF9kXrvVN42vl7Ua7Fri6+tfC7/InlD+WXKhLLzvFphDFIf5FXnnBPf8o8ZW1/fOPt5Gc+NUN6mpZxtf21sWtan1XXauRjq5pU3JuYAc4A5wBxY1RzYiNyO/9Mb8nd/fzM4rXvVc70+b0f0hrEgtPb1n//UP8te1zxaJle/f5OuwwlSl37EG8TUiqg91rrby4Q9t7pft37k6nT1RB/xdoumX7Gr6wxHoR+5PluhSGVD8wfpqSWljLtccUuZhZXBkN+27eK79q587ovvyDvRXuUfy4uv1h+B2zJp/SGt/XrgG28NCPFUnKOPx/2KYVqnhD5m8vqxaWnL5a9FOgjf53/2e9GYa/2WhavTlK1j7mYemITx0j6GNuv94F4ifR/r2LRMKGfrCdfDqxflZjlNt2nuOJHnag7pKq5Zqa3758fKzsXQLq+8qTEHmAPMAebAqubARuRWg332638eHMy96vkindBvRbBSq8c//VP/tHrq9oQ0XcukbQSxSd/g3Rvwfr2PMnojb7mhrLuMF6IggRpHd531ylYqA2kfljkP4uHiSFZuvSAFKcrEXYq3ZRb1xciMjb0pXiIStkY4uQtteqmz9fs49Xqei23H8rDX3XHrmMbCOk9eO4E1Vts/F29WWL3QzZM3miuOeVvflYsXUCuKvu/+uj22fOw8sNfr+PNbBnz8dZr7A6ZNbh2HOq+fK/V5rmwaC+e8yTEHmAPMAebAsnNgY3L7j//Drrz/w793fqCver5I0Dm5DYKbSm04z8qtEbFc++6Nt7KYIAq1TORWxPJlYnnStrxw+Dd5W09486+aLQ9S2cvFO8+1VCZCHHV7eYkKdbv4zEpcvi+lqFrBs8dZWSvLtIxJF5fQh7BCW8WaiLten3d8Fs07j7CG+BbJ6/gqk8zDSbX5Y0v7VrVhrtv5Fdjoa5vcekb1PLBlcmlubFrkthH/tXflxf247rY4bLsc88bGHGAOMAeYA8vMgY3JrQb3r7/6Z+7tWl8XDbZtW4Ku3gaZTV9z2xJyoqaxhJWpIJRWRqwoRMflClW+zIJym8hjF59Y1moDCnHkylqZ8GIYy0Yok5PGHLO0jlC/xhbiaDKs27Tlc/W7MWmRXpfW8lVrtq7uMY3HZ5G8FSsj7y4mc55ytCz68rr03r57lm4ulJJ5/6vX5J1r5R9kWj6RT603jJMeh6dey+UN+XNplrPmS/sb6vZp9R+Hem5jtvk4rscEFrBgDjAHmAPLz4GNyu0/+nevyS/v/kD0ddFBa7uhrEtuczeUeTmtPyLV8xf1I+ZEJrxAdq/cdpfx8mTFoLvOOiZl89S+b3tRTm35te1KOjOrm6FcTlICs1Be86Z9d/J27Zq8es0IbCR7uS0GPm+o365AujFxK5F5Ltk4dQztNobOMU3kdoG8FSvXv7q/8fgm9S+Q1/Ht6Lumu7b2/7SSSv0TR8fHx6BfllBvsQnx6msqt6l027ydackfF+l8sPWkbdq5aPNxvPj/izCDGXOAOcAcaM6BjcrtcQag7avA2uS266vA/Jt2WPEMAlvKaHn5nf1ryc1QIV+9ChUEK9QUlynlZt9+vFwLqxc6c+7kJ9QUC91xuIWyVih83LWUhTz6GvoURDOkBQGtI6xjt+WszFs58uXrNtMYcmPi6m3hEuKs42kKXZrHjo/WbUXwcz/7P92PboT6bN5QT8okqkPl0syZKK0Uzaq9JG9b/TGT5pxwK64tEqvt556paDopDZ02r9rXrjStO46vng+hP6E6+0dR4JJey8XKtfwYwgUuzAHmAHOgew4MRm51IO/UjzichknkRCXzMfVp6NtZ7kNWQBcU3k3zU8HO/aGw6Thor/vNAT7wYQ4wB4Y6BwYltwpZBXfTP7871MG1cYeVV1bM+M/KzotNH/vV63qVd9Pt0x7znznAHGAOnP45MDi51Un5kz93WXQ/rd4wpt+IoE891muaxsQ9/ROXMWaMmQPMAeYAc4A5wBzIzYFBym2uI1xjgjMHmAPMAeYAc4A5wBxgDiC3LTfe8I+DfxzMAeYAc4A5wBxgDjAHhjcHkFvklm0czAHmAHOAOcAcYA4wB07NHIjkNnx1D68QgAAEIAABCEAAAhAYIgHkdoijRswQgAAEIAABCEAAAlkCyG0WCxchAAEIQAACEIAABIZI4EzL7e2bH8nND35PPn77JTnaO++eeqzXNI0HBCAAAQhAAAIQgMCwCJxZub31o6tytPe8HF15Nv/ce140z4l4zCYyHY1ld3YiojkjQXxfnvvyXfL4Wyeku9e+Ip/5wmflOftrzja0t56UT335KzLXFOmry9bLMQQgAAEIQGBgBAYjt2+88YZcv359JXid2L75xbzUWtl984snQ3A3Ircz2R2PZKvYWQnjzVVSSuhrX5HPzCt3cwV31uV2XVzngk8mCEAAAhCAwNIERjdu/JVcuHBB9vb2lq5kEwUvXrwoly5dkitXrsjR0dHSTd6++WF2xfbCC49J8dC98syT98fSu/e8aJlT/1CBHo9lOirkYK7OehnePgEu/I2X75LHT7vc9o3JIiu3fXWV6evhOmfjZIMABCAAAQgsSWD0JwOSWxVcfb7yyity9epVuXXr1sLd1v20ua0ITzx8n3zw+tPZNC1z2h+Hk7FMJzM5KEYyn7CeJLn9rDz31ilfue2bgGuR23Vw7esI6RCAAAQgAIHjERjMtoQgtvb18uXL8t577y1EwN08ZrcelMePPnhPVmxVhLVM8xHkbke2RyM5Vz5rMYzTt8YTOXSVxPm3qpVSn18FMzxUOLXcNbctIayoavmx7E6Kqk1bRiSuv05ru66tadvlnt6dwrXpYw2RxGW/8qVfjPrc37fQhoqzr6suE9rwr7PJWEajUeM5NlziEm1n35LHv3CX/IOf/wn3/Mxr3xcRvVYKW5nm9tS+9WSST+sM2xLieuI9uHGatlXte3X7Wp+Ub4Twsud1fL5e36aPtSxYSuvVtLzrS10+atsVrWP7lPb5NbMnN6lr9tpnq/5/6gsm5hA7rxCAAAQgAIEBERi03AbR3d/fnxv5jf3mTWSPPHC3hKduT0hXdrVM8+FltJZTEVExTGS1PtcavNjVwpmUicQyyLG6p95QZuXW7I2N9uNm6neB63V7Q5qp24VlhTbN21ZnUkdf35xAjwyfJtHVXfFiF0miq9xfrwS0lNpPvfwt33QkfV40I9lT0azkz9dlZVc/xq/qjuoSkej8+/Lcy+bmL1tvsgLrtgboTW1R+Z62S/GtYyv7EvYk27rs8eoGgJogAAEIQAACd4zAoOV2mZXbnNyqzKrcplIbzrvktl6p1TG0wmePy/GN5DWMuc1nxNIKrT12EpmKateqqxfosLJsX4Nk61aEcKxRRefZmNO+lpJerU7n+mb7GdLX9JoIYt2KSqH9xoGu87ByW5euV3NFJNeGvZZKY3qusyW7Ympj0uNyJdWWt+2E8Ow1e5xLt3WVIuxWd9u+iSHUwSsEIAABCEBgAAQGKbfH2XPbti2hS267tyXYUbYCZ4/LPFlR1Hy1rAaxDHtgXckVyG3bNoCwmmylV4+rFedszBpV0r9sPtu3JL/FZo5Xsi0hJ3euDSuOeqHrfI1y6+TyLqlWliPZ9NKraSq/2VXlXP/sNXsc2NprSXs+S1iptvIfCvMKAQhAAAIQGA6BQcntKr4toe2Gsi65zd9Q5mXNfnWW2yNbbR/IyVzmI/5UClVkx4VsG+FtbkuoZTjaL1tuDahXk3dk1+1V9e3W13V1ttzmoO1XMYeJa/PbY00Pdab98/nsCrDbplGt5qb5Q1vreFVptd9R+y15zu65rVYo++W2kstypbV9W0Luo/9aFJ2ohlVYK5qNesstCF9+Uh7/cl2+e1tC0vaC2xKeq77LNyf06xgf6oQABCAAAQisj8Bg5HZV33Pb9lVgrXLb+lVgpawV9Y1dsSS2yZyXwLBSGpfRgfblrDTPL7daXPfn+hvcorrNdW07iK6uFEdtlXMtum7K2jpV5t0qbyWwXX1r47GmyV2ujrobrYJUdq7UahxWdkvRe7m+2awW2zJmcyNa46atUlqrG9peflI+U8Xh686n+bqj/bt6KV1t7Wnb5/c3nDViS+rStkIsVubLXvICAQhAAAIQGBSBwcjtKqmu5kccNixrqwRAXeshkKzIHqcRFc5q28JxKgplbWyJ3IYsvEIAAhCAAAROA4EzKbc6cMf/+V3k9jT8A1hpH6xAHqfiY8unrgzbr/Ty2zSCLLstEuGbE44TJ2UhAAEIQAACJ5DAmZVbHYvbNz8S3U/rbjLbOy9He+fdsV7TtO4HctvN5wymrkBuwxaB+mu8luToBLnebuDENnz1WbU9Ysm6KQYBCEAAAhA4wQTOtNye4HEhNAhAAAIQgAAEIACBJQiMtMyFCxdkb29vieIUgQAEIAABCEAAAhCAwMkhgNyenLEgEghAAAIQgAAEIACBYxJAbo8JkOIQgAAEIAABCEAAAieHAHJ7csaCSCAAAQhAAAIQgAAEjkkAuT0mQIpDAAIQgAAEIAABCJwcAmdabo/3VWAnZxCJBAIQgAAEIAABCEDAEzizcnv8H3FY8RTaKWSr+hnbFdedq879pO5Ydme5RK5BAAIQgAAEIACBYRIYjNy+8cYbcv369ZVQXs3P764klLqSNcjtQTGSc6Pmc6vYETmxcqu/rnWXPP7aV+Qz9le0yh8g+Ac//xPyqS98Vp67VqMT8b/AlU1btpyrPv5lr6rFZetMflih/qGGlj5XDXIAAQhAAAIQgMC8BAYjtxcvXpRLly7JlStX5OjoaN7+NfLdvvmhHO09L0dXno2eF154TIqH7pVnnrw/uq55tczaH3PL7TK/jLYj26NCDtbeidU0oL/SFcvtt+TxRHQ/Vf3KlhfD8NOyor8SVqUtW87XqfU8/vJdUtXturdsnV6UK6GN4hRp9nk1LKkFAhCAAAQgcNYIDEpuVXD1+corr8jVq1fl1q1bC4+X/rRuKrZ6/sTD98kHrz+dTdMya38gtxXib7z8WXnurWTltkrVAxXFcvXWrYY+Kd+o0stV0LeqC+Zg8XIqnbHcmurc4bx1aj4bpyknKrd9fU7b5RwCEIAABCAAgRyBQcptkNzLly/Le++9l+tX67WP334pK7CPPnhP9rqKr5ZpPNzH+mY1NDoPq6u6YlpvC9jesbXEabp9INpz6+pLy8Zl6vzx9ekk3Uir6SZWDSOKV9PHsrszkWkZr4t1p6i2NcR19rVX93M2GctoNGo8x40Y6zK9R3bVU49f/lZUpFVIlyjXWldocYE6Z699thblTNyhSl4hAAEIQAACEFiewKDlNkju/v7+3ARu7De3JDzywN0Snro9IV3Z1TKNRySHqSx6ud2yQqkrs9W5l0Mru7o/tpbVmewWEzkMjUZlgzhXiV5MK59N0zXfPHJr2i+l1u3N1eJRX0sR7mwvxLaG13Lfavh4X4VxLrldslyn3C5Yp8aq+4LDs3tFeA3sqBICEIAABCBwBggMWm6XWbnNya3KrMptKrXhfFm5tfIqYqQztwUhc+1wMq5WTmsxNvXoBDWrq/bmseZK6xwrt5WwpgJrzudqbz3/cpzIhu0IoYnMCmgqpMuW0ybSukKzC9fpRNjeCKfbEu6SIOmhXl4hAAEIQAACEDgegUHK7XH23LZtS+iS2+W3JdjBMVKaEVmV1GrlttySUAlqtHJq6tHqbTnbXHQ8z8qt/VowI7OuHnM+V3t146valqCSma7QulZUbu3NZhLvuV22XCMs+bMAAB+/SURBVOhBTm6XqdPJ8LzbJ0LjvEIAAhCAAAQgsDCBQcntKr4toe2Gsi65zd5Q5oSzFkJdZU1XV6uP9UUkTldZHEm9suuFtZLbRCDjsoncui0Hti6RgyJZpZ1rW0LdF7+Noe08jT3X3sLzsLuAW/W0N2PZ7LHMum9LCLK7bDlTfUNul62TlVtDlUMIQAACEIDA+giMPhGRCxcuyN7e3vpaWUHNq/qe27avAmuV246vArPbBqZFIdNqT20poEV9Q1YtviUM8/H+lt7MNTErt+UWhrDNIK7bi3J0A1q50hvy19IcwKuQJsIbrQablVlXpOe8t73Q7opezffKhv2q+lp9pO/E8S63l7X+GjARFV2bPxz3ljNhN+T2OHUmZas4THscQgACEIAABCBwPAKj9wcit8frZlx6/T/ikK6uxu1zBgEIQAACEIAABCCwHgIj/TmEIazcrrr76/35XeR21eNFfRCAAAQgAAEIQGAeAoPZcztPZxbNc/vmR6L7ad1NZnvn5WjvvDvWa5q2/AO5XZ4dJSEAAQhAAAIQgMDyBM603C6PjZIQgAAEIAABCEAAAieRAHJ7EkeFmCAAAQhAAAIQgAAEliKA3C6FjUIQgAAEIAABCEAAAieRAHJ7EkeFmCAAAQhAAAIQgAAEliKA3C6FjUIQgAAEIAABCEAAAieRAHJ7EkeFmCAAAQhAAAIQgAAEliJwpuV2fV8FttRYUAgCEIAABCAAAQhA4JgEzqzcrvdHHI45KpL+/O2c9bmfxR3L7mzO/GQzBA5ld7otB+YKhxA4eQR2pBiNZXKcf+OziYyrOmYyGY+k2FlBT6N656mvp+2F6zNt7hQyGk/EYTpOPaZKDiHgCfh5Oxr1/bvpmd/gXCuBwcjtG2+8IdevX18JjPX//O68YarEjuRc+dyq3mHWLbfr+pEJX2/oj75ujYoTKIwHsr21JdPdw3Kg/Pm5c+dka2sq1WVR4d0SvR6e25u234Ptqu04tjDH0r6ELvWVE5HDXZluxf2rmYT6w+sy7bRxjdtu9itf7nB3KltbXX+AlG8mk4mMg9iE8E/NK3I711CuXW6D4LT9oaHjNKoFe66gN5UpxD4SFbR+SVtjXO4PjzoOjWWc+8tNx7OMdVT9YVbG1ZI2m4xNmbqN8DbbSA8JUXf9ONqYXLls3qigiPTJ7Vn4/yplsrnzwcjtxYsX5dKlS3LlyhU5OtIfDV7ucfvmh3K097wcXXk2el544TEpHrpXnnny/ui65tUyK3/sFE5qt+2KyU4hU/cPe0m5nTvI9cpt2ieV3Oja3HGuKePBtmxVluoFdvsgrNweyu5uMFi9ZmTXyaA5X1N4dbUHsj3dlaDgonFXcufj1vPtbSvqWrqrnK+9TRQPtrdMG5p32XZ8uUqWo9i9vFZDoGlVP7vKiWh8VbkaVHW0U4ykQG4rHv0HfW/AXTUcp6zWe9zyHbFZue3ItnySj308HmdlrBKnE/lHlsZupPwOrWx7RoXYt0AdD/03PBrZ6ztSWI5OZkN6V1oyuq6foZxvx0prktudhnG0+TQ+e54r56/1z+/T//9VO511pwxKblVw9fnKK6/I1atX5datWwvz0Z/WTcVWz594+D754PWns2laZrUPv2LbLnynSG4VnNsucXJWcFXsKulSEXSrtSpV6aqgXotlVuWqLrvaWdFfW4g1ztkfU1LOymS5MhwkWcXRiW/GIBdqx/0hYHl6aXXV2vZdVwznrnJuwdeOXcxBz3aKsUx2WLltkmm70v8G3Fby+HJ6nLbbo3IpG5Jb94dUJGLaeimPE7M1oifczSaX8ZmtLfML24oitePjZNULbaF/nO7oW8ZYRq2ro12fXrSnOZE0Jp2eN3qmMjyeyCSR2flZ9c/v0///VYPqxi4MUm6D5F6+fFnee++9hWB9/PZLWYF99MF7stdVfLVM/uElNXwMH38EXwrqxK/Qah6/KuvegWVrPKlX5BqVN8vWWxaCLNbbGSpJjiSyWUfVvnSt3Hb1SQOt07dGY9mdFKYvbfUm112cmfgdh7r+ebY1hL+s64+s/MdPXX9Zx3LrVwO3ptuyvZDcBlnzq5D1yqM/D9sY6pXWUhqrlVff7n/8jT9wWx8iYW7IXzlB9LopH6ZNr3Qm5TS/k8xIJK0A67EVU9/SQu1om4kgV+Ub/QssddG5o9wcchuYxK/lR8TVx5r16k0taGWeaoXIlhnLpEtUko9W6/fk8OZm60r26bWW1R7E5fyc1mtlPKE/dYMtZWIa+sfmuBKyZWOMY9P9rVejektBCTFW7dlYetqO6mv2O/43nsSj7YaxXLqernEPsWdWAIO4hdfQZRdH8+PxxhwsmdXDGtqK+1int80VvZ6U1XEK8p2V22Z+ny1u266spiuwKn+jx37R7eWOxsjwqMQyNzauQW3P/jsNEP37p23fpOhgJKu+Zapp21/x/azfN9K2Aod4fF3f0jm99LhGkXOyYgKDltsgufv7+3NjubHf3JLwyAN3S3jq9oR0ZVfLNB9ewmph9P/oasH16ZWU2pu9dqwQNmsOApktq2JaGDHWusK+1obcjqS1jnFuq8B8fapkupTkWtQTia26Zq93xF+KczvTqsJjHVSSZWrRa27PbSRkZkVR80bbEryQxbLpxbYhqkYUq7at4Nlj53eZj95d25nrZf6oTdOvsK+27lYtrrHka3+C0NrjurIq9vpSfZTEl1v9rconeVVolb3G2FmulNtUmusgckf+TbnxJlu9cYY3Ofvm5svU8lDmCbIUNTOTSVHeuKTXozfXTN1pemvZTNyuXX+9WtVyb6zhI2ZNC8eauX6DjkNuym0kC3PHmNRvRcUeR43bkx4+UR19/Y7/aHASEsZr6XrK+EI9NnTLNuUVbtDT61XZY86TcfJRfdRm17hnGKdy6/iEeZPL79m3/xsyAmj7bI/dP40wRlqf//emYlzXq22Hf4f22IB3sYZ6zHU9bE3zfar/PSflXNGxGSvTnzLuOsY4zf0ba/03nGEZjVszDq6sjsCg5XaZlduc3KrMqtymUhvOs3KbFVQrcSqK9psLNK08z5a1g9pRtsx2OBnXN6K1ym1L+20rt9m4TJ9y6dE1k9d2x7VnYxHJxh/VFSpoqzOkL/aakydfgxc63b9ar8J6ga1XYe0WBZ9WS2O56ljtHQ1xpfm8AMc3Uem1UHctn1UN7kaqkB6u1q+VNNaX3JHra1VvSKzr1/Q6/vq627NrhLwq2bIlI9tOzwpsEFr3B8V0V3a3y/71leuT+RBseE3eYP1l+2Znj8tCuTK5a6GN8OaYruhYAaryNtuLP30o39xb28uJTCkmWqaKoV4htG/MLoxI9prx5KQ4G2Pav6heL0SNm38qDnrQ03ajviBgoazpdyWRZQOW36rqaY3d98Nxtu3a47LsXBxdXsvGHocgzLXOcTf5QtGSez1XUq6JPGb60Ry73HjbuarHQVzrY+VRS2d93X9qEfL7wD07G2vVIb+NIfrDrk6LP6kw16NDE2vSX/1Dyf4bSs+1muXGNQqAkxUTGKTcHmfPbdu2hC65zW5LaBWxIHFdgpqmpaOaphsxLj/Sr1Y37WqtPW58nZipY2G57ZDyiEOLiNo8XfHbfBUSG3d1sTqI/1PpeEOvSvjtAM2VTi+3B+4GqiCSei0cmwrcYSqtXXJr61CJ1Ju27DW/YqkxpfKt4tq3UpmT2/ZydZ9sW4e72zINK7cZwdQuL9ROshodbkyrZdryNGLdU87GbGtoPU7eqHw+fcMPb5KZN/9cmdw1rcyJk3nzi0QqU7cVuq6ybe25rQohdhdA3ZfWMgmdVcVo+1KxiIUkSFBecufhE+oz8uG6Y8Yw1297LervMeqJMCaxl+1F+zMbMSw5T1LOVf9LCbXtRDHqSRJnVdbOIVsokz9bv+HviitX/f83rlf/f1YxdP9PVxZbl7XXZ5NCxmHlVtus8vvVUntuI3ar9CavTdPjnIymebxMj+VLV33/a/Gv31PCKnxUX9e/4Vb2yR8PzWC4sgICg5LbVXxbQtsNZV1ym7+hTAXU7KPVwYjkrENQ9ePVyVjcnlWz70nLe2ntKBu1Eeopb9Y6rty2bQuo9gf7Pi+0LUHjtSvYXfH3tr+CGd/Ytxm+WaCU28bWg1hC6wgycutuTktuOEtkLQiikzS7yqvtun2/pj0XS9gqULecHoU6q+s95WpB9H3Q1dMg1mEltfqGhqrSjNx2tpPwSTiYahNp7i6nsTf/MLG1pcf+TdeuvLitA9VKX+bNvNzrWr9flm94oYx7QyvfxJM3fv/HVhCyslxdUbnCU6Z3lvVx10V3ZFJ+k0pz60EQirSM/pdUtmVjjmTvODEm7Gy9s4lMqpt3TD4bR/nmb6Ul4mfr65L6ucYrjIkyCrx0rmhs4TzlV7LJjXtDXHzZxvaOULZzrMt26sGO50kfp0b/zbg34kz7nP57MWNVJfm+tf8bqgXSjV/os2tKb8oqpKgY+0prqS37Xn4FmB9/s1861FGt+lZBhYrM/vEkzZ2m4x3yzGRm3nudINu4Q7aMHEdye6xxNY1wuHICg5HbVX3PbdtXgbXKbedXgXnZ67yhrPoHlFmBLL8OrCpf/efWIbflqmsoMy0KmS65LSHUoa/1vtmuPvmVqmn4Xt6WG8ry9Ya561d3Q54ofpelp/1QzTFeG4LkJK3ccxutqKpoGdmM2kwkrErzK7P1VoZaTt1qaiW0vrxdlY3T/UpwqMe+pqufDbk1343bVq7RVhV/+8HC7URcaw5hFTfE1pDV1nL1Cnd7lLmUIB5hFSaIjubNvZn7eT6uPuJPbizKCVqZd1wU5s22rLuw2wWabYdVorhsGkMol75ZaxtBztIyZoXIxhxJ4/FitDKS3lDmhCEwDP+32TgC+zY+UZw9/VbJCG2pvNobABepx+UN8yRXT2DdnDe1sJVzMBIfnz/EGI/1fGNQtHFy01j3UYe4zbgHxtUfGmHOh36UsVYvzX75pPZ/Q7EYlv0M413KYVj1rJrpuG7zuONobJM+dqVp4Wjsbc3xeOTiC7kjmW3IblzPYuMaWuB1HQQGI7er7PzJ+RGHVfbqDtWVrMTeoSgWa1ZXEVNDdNsRrIAtVuUqcjfkcRWVdtWRkeB6v3FXwTuXpowaQ7eJcCJRmbfBNlGYtzz57jiBpcZ90aj75klf+qLtbTZ/KodR6zk5bVlBjcpxAoEeAmdSbpXJyf753Z5Ru2PJuupqv6/Wr7JW+3/vWFyLNuxXVxsrhotWs8r8nR/xr7Kh4dbltlNkbnRbfY9UJsJKqdbuV62ij2XnanTYUjJXF09VplWN+6JQ+uZJX/qi7W0wf+vK6QZjoKkzSeDMyq2O9u2bH4nup3U3me2dl6O98+5Yr2kajwyB8oawaltB7qcSM8W41E5AVyP1I/o7siLZHtbZTok+njY3Ai1EZcBSslA/T1HmlYz7ojz65klf+qLtbSZ/2JZidihspmFagYCInGm5ZQZAAAIQgAAEIAABCJwuAsjt6RpPegMBCEAAAhCAAATONAHk9kwPP52HAAQgAAEIQAACp4sAcnu6xpPeQAACEIAABCAAgTNNALk908NP5yEAAQhAAAIQgMDpIoDcnq7xpDcQgAAEIAABCEDgTBMYpNzyFV5nes7SeQhAAAIQgAAEINBKYHByy48vtI7lhhP0i+3DF93b4w2HQXMQgAAEIAABCEDAEBiU3PKzuWbk7vihFVp7fMcDIwAIQAACEIAABM4wgcHI7e2bH8rR3vNydOXZ6HnhhcekeOheeebJ+6PrmlfLrPahPz87ku2d1dY6zNqs0NrjYfaGqCEAAQhAAAIQOB0EBiO3+pO4qdjq+RMP3ycfvP50Nk3LrPaB3NY8rdDa4zoHRxCAAAQgAAEIQGDTBAYjtx+//VJWYB998J7sdRVfLZN/7Mj2aCTnyufWqJCDkHE2kWnm/C1JyowncujKxNenk1lZU3w9asPVNZbdHW3Lx+FWg3eKKqa6Hq0uritOC4H719lkLKPRqPEcV3HF+bXuYjSWyaSoylR53e+sh321IhKdW6G1x2n9nEMAAhCAAAQgAIHNERiM3N7Yb25JeOSBuyU8dXtCurKrZZoPL4qRIO4UUslni9x6+U1XbjN1uQYz120bpaxuBUEupXarKPc7RDFoXWPZDc4saQzNHi52RcV0JCPT9lhlV9uLZDY9t0JrjxdrndwQgAAEIAABCEBglQQGLbcqsyq3qdSG86zcqmQGqaxIGmGMxNILXb2Sa/Jp2Wxdbddt2VRYO87Nam5YadbXSM6rfixzoGJayqwrPpPJGLldhiRlIAABCEAAAhC48wQGI7dt2xK65Da7LSErpCqe5eroWuU2rMB2yKybEyY9G2/7xFl6W4JZGUZu2/mSAgEIQAACEIDAySYwGLltu6GsS27zN5SpOCYrn1YgndwGCRU5nIzrLQuNLQG+rvrbE3Zk132e39NG2HNbCaWRWTdf7HnahshBYfYIH3t+9a3c1qu6XpzDHly7FcEeHzsgKoAABCAAAQhAAAJLExiM3LZ9FVir3HZ+FZgXxvAxf7XftsSoQhvSpkUR3WAW0qqtDU6G/U1hcT1dbVh51UZ7zk0bGlct00uPuynYIbduV0Z9g9q4KGSc/eEG5NYA5RACEIAABCAAgTtIYDByq4z4EYc7OFNoGgIQgAAEIAABCAyAwKDkVnny87sDmFWECAEIQAACEIAABO4QgcHJrXK6ffMj0f207iazvfNytHfeHes1TeMBAQhAAAIQgAAEIHA2CQxSbs/mUNFrCEAAAhCAAAQgAIE+AshtHyHSIQABCEAAAhCAAAQGQwC5HcxQESgEIAABCEAAAhCAQB8B5LaPEOkQgAAEIAABCEAAAoMhgNwOZqgIFAIQgAAEIAABCECgjwBy20eIdAhAAAIQgAAEIACBwRAYpNzyVWCDmV8ECgEIQAACEIAABDZKYHByy484rGN+2J/PtcfraIs6IQABCEAAAhCAwPoIDEpu+fnddU0EK7T2eF3tUS8EIAABCEAAAhBYD4HByO3tmx/K0d7zcnTl2eh54YXHpHjoXnnmyfuj65pXy/CYh4AVWns8T1nyQAACEIAABCAAgZNDYDByqz+tm4qtnj/x8H3ywetPZ9O0DI95CFihtcfzlCUPBCAAAQhAAAIQODkEBiO3H7/9UlZgH33wnux1FV8t03zMZHc8ku2dHdkejWRrPJFrs4lMR4UchMzRueYby+6kkHOjkXtOJ7MyZ1eaZvFtNMs1YzgMbZvX2WQso9Go8RxX7ZvM7lDFdCyTSVGVqfLOJjIeFbITikTnVmjtccjMKwQgAAEIQAACEBgGgcHI7Y395paERx64W8JTtyekK7tapvnwYrnVKrMi0pDbkWwVpRa6tLHsOr8tBbk1LeTTKILQ1sdRDM1Al7iiYjqSkYlnrLKrsUYym55bobXHS4RAEQhAAAIQgAAEIHAHCQxablVmVW5TqQ3nXXK7XS1hpjKbnpers2Gx1klqkNaOtJ16pTes3OqrX/W1orvK0VcxLWXWVTuTyRi5XSVh6oIABCAAAQhA4GQTGIzctm1L6JLb7m0JZmCildrVya1uechtN4hXcU0cyeHS2xKMiCO3CVROIQABCEAAAhA41QQGI7dtN5R1yW3+hrLMqmm01UDkcDKWestAx+qs21MbVnF1nmjd4dxvWbArxAdF2NebiWEl06xv5bZe1fXiHPbg2q0I9nglQVEJBCAAAQhAAAIQ2BiBwcht21eBtcpt61eB5cVShTZsH5gWhbnBbFm5DSvA/iY0rbsW3XwMxx/1Drl14dQ3qI2LwtxgZoXWHh8/ImqAAAQgAAEIQAACmyQwGLlVKPyIwyanBm1BAAIQgAAEIACB4REYlNwqXn5+d3iTjIghAAEIQAACEIDApggMTm4VzO2bH4nup3U3me2dl6O98+5Yr2kaDwhAAAIQgAAEIACBs0lgkHJ7NoeKXkMAAhCAAAQgAAEI9BFAbvsIkQ4BCEAAAhCAAAQgMBgCyO1ghopAIQABCEAAAhCAAAT6CCC3fYRIhwAEIAABCEAAAhAYDAHkdjBDRaAQgAAEIAABCEAAAn0EkNs+QqRDAAIQgAAEIAABCAyGwCDllq8CG8z8IlAIQAACEIAABCCwUQKDk9s7/iMOs4lMR2PZnW10nDbYmP35XXu8wRBoCgIQgAAEIAABCCxJYFByeyJ+fhe5XXKqUQwCEIAABCAAAQisn8Bg5Pb2zQ/laO95ObrybPS88MJjUjx0rzzz5P3Rdc2rZdb7mMnueCTbO+ttZbO129Vae7zZKGgNAhCAAAQgAAEILENgMHKrP62biq2eP/HwffLB609n07TMeh/I7Xr5UjsEIAABCEAAAhBYjMBg5Pbjt1/KCuyjD96Tva7iq2XSx0ExkukkbJjdke2RWXndKWRrPJFDLeS2H4zk3Mg/q9VZd72Qt8SXDelVueR63VYQYV8u5D+cjKs2tkaFHKQBl+ezyVhGo1HjOa76khbUVdexTCZFVabKO5vIeFRIteAcndvVWnuc1s85BCAAAQhAAAIQOHkEBiO3N/abWxIeeeBuCU/dnpCu7GqZ9KEyuVWUWrdTyHQ8rmS3Ft+Z7Bal5GoFKr1BPEu59RIahDW0ouJqbzaz6f64qkeLRHWFOlb1qmI6klHoqxPYsTgXjmTWx1HLrhVae7yquKgHAhCAAAQgAAEIrI/AoOVWZVblNpXacJ6TWyuUB4WK6I5su9ValU8rpiLZVdVISK28egkOK7n21a/eJnndmJaruJEQr2qwVUxLmXVVzmQyRm5XRZd6IAABCEAAAhA4mQQGI7dt2xK65Da3LUEkSGwitTsTmSZbEqotBVZo7bGrq2VbQ2O8c3IbMvm0rQ7JXXpbQtiBIchtoM0rBCAAAQhAAAKnl8Bg5LbthrIuuW27oUxXZHU7QtieEM4rmbV7b8Wv4FbbCbrkttxvW+3PFZGDIuyjzcjtbCK79cbXFX/zQt/Kbb2q68U57MG1WxHs8en9R0DPIAABCEAAAhA4PQQGI7dtXwXWKrddXwXmBNWsuLpzuyXBi2jYWjAtCplm99zWWxfCDWKtN6Klq7zlHNJ9vqGdINurmV4dcuu22dY3qI2LwtxgZoXWHq8mKmqBAAQgAAEIQAAC6yQwGLlVCCfiRxzWORrUDQEIQAACEIAABCBwLAKDklvt6R3/+d1j4aYwBCAAAQhAAAIQgMA6CQxObhXG7Zsfie6ndTeZ7Z2Xo73z7livaRoPCEAAAhCAAAQgAIGzSWCQcns2h4peQwACEIAABCAAAQj0EUBu+wiRDgEIQAACEIAABCAwGALI7WCGikAhAAEIQAACEIAABPoIILd9hEiHAAQgAAEIQAACEBgMAeR2MENFoBCAAAQgAAEIQAACfQSQ2z5CpEMAAhCAAAQgAAEIDIYAcjuYoSJQCEAAAhCAAAQgAIE+AshtHyHSIQABCEAAAhCAAAQGQwC5HcxQESgEIAABCEAAAhCAQB8B5LaPEOkQgAAEIAABCEAAAoMhgNwOZqgIFAIQgAAEIAABCECgjwBy20eIdAhAAAIQgAAEIACBwRBAbgczVAQKAQhAAAIQgAAEINBHALntI0Q6BCAAAQhAAAIQgMBgCCC3gxkqAoUABCAAAQhAAAIQ6COA3PYRIh0CEIAABCAAAQhAYDAEkNvBDBWBQgACEIAABCAAAQj0EUBu+wiRDgEIQAACEIAABCAwGALI7WCGikAhAAEIQAACEIAABPoIILd9hEiHAAQgAAEIQAACEBgMAeR2MENFoBCAAAQgAAEIQAACfQSQ2z5CpEMAAhCAAAQgAAEIDIYAcjuYoSJQCEAAAhCAAAQgAIE+AshtHyHSIQABCEAAAhCAAAQGQwC5HcxQESgEIAABCEAAAhCAQB8B5LaPEOkQgAAEIAABCEAAAoMhgNwOZqgIFAIQgAAEIAABCECgjwBy20eIdAhAAAIQgAAEIACBwRBAbgczVAQKAQhAAAIQgAAEINBHALntI0Q6BCAAAQhAAAIQgMBgCCC3gxkqAoUABCAAAQhAAAIQ6COA3PYRIh0CEIAABCAAAQhAYDAEkNvBDBWBQgACEIAABCAAAQj0EUBu+wiRDgEIQAACEIAABCAwGALI7WCGikAhAAEIQAACEIAABPoIILd9hEiHAAQgAAEIQAACEBgMAeR2MENFoBCAAAQgAAEIQAACfQSQ2z5CpEMAAhCAAAQgAAEIDIYAcjuYoSJQCEAAAhCAAAQgAIE+AshtHyHSIQABCEAAAhCAAAQGQwC5HcxQESgEIAABCEAAAhCAQB8B5LaPEOkQgAAEIAABCEAAAoMhgNwOZqgIFAIQgAAEIAABCECgjwBy20eIdAhAAAIQgAAEIACBwRBAbgczVAQKAQhAAAIQgAAEINBHALntI0Q6BCAAAQhAAAIQgMBgCCC3gxkqAoUABCAAAQhAAAIQ6COA3PYRIh0CEIAABCAAAQhAYDAEkNvBDBWBQgACEIAABCAAAQj0EUBu+wiRDgEIQAACEIAABCAwGALI7WCGikAhAAEIQAACEIAABPoIILd9hEiHAAQgAAEIQAACEBgMAeR2MENFoBCAAAQgAAEIQAACfQSQ2z5CpEMAAhCAAAQgAAEIDIYAcjuYoSJQCEAAAhCAAAQgAIE+AshtHyHSIQABCEAAAhCAAAQGQwC5HcxQESgEIAABCEAAAhCAQB8B5LaPEOkQgAAEIAABCEAAAoMhgNwOZqgIFAIQgAAEIAABCECgjwBy20eIdAhAAAIQgAAEIACBwRBAbgczVAQKAQhAAAIQgAAEINBHALntI0Q6BCAAAQhAAAIQgMBgCPx/5CjM17X1SFYAAAAASUVORK5CYII=;" vertex="1" parent="WIyWlLk6GJQsqaUBKTNV-1">
          <mxGeometry x="8.25" y="2022" width="695" height="246" as="geometry" />
        </mxCell>
        <mxCell id="hnCcET9oKe7-5iIsfZf4-202" value="" style="edgeStyle=orthogonalEdgeStyle;curved=0;rounded=1;sketch=0;orthogonalLoop=1;jettySize=auto;html=1;strokeColor=#457B9D;fillColor=#A8DADC;fontColor=#1D3557;" edge="1" parent="WIyWlLk6GJQsqaUBKTNV-1" source="hnCcET9oKe7-5iIsfZf4-194" target="hnCcET9oKe7-5iIsfZf4-201">
          <mxGeometry relative="1" as="geometry" />
        </mxCell>
        <mxCell id="hnCcET9oKe7-5iIsfZf4-194" value="使用FutureTask.get()阻塞获取各个身份的数据" style="whiteSpace=wrap;html=1;rounded=1;shadow=0;fontColor=#1D3557;strokeColor=#457B9D;strokeWidth=1;fillColor=#A8DADC;glass=0;" vertex="1" parent="WIyWlLk6GJQsqaUBKTNV-1">
          <mxGeometry x="532.5" y="585" width="145" height="60" as="geometry" />
        </mxCell>
        <mxCell id="hnCcET9oKe7-5iIsfZf4-199" style="edgeStyle=orthogonalEdgeStyle;curved=0;rounded=1;sketch=0;orthogonalLoop=1;jettySize=auto;html=1;strokeColor=#457B9D;fillColor=#A8DADC;fontColor=#1D3557;" edge="1" parent="WIyWlLk6GJQsqaUBKTNV-1" source="hnCcET9oKe7-5iIsfZf4-198" target="hnCcET9oKe7-5iIsfZf4-160">
          <mxGeometry relative="1" as="geometry" />
        </mxCell>
        <mxCell id="hnCcET9oKe7-5iIsfZf4-198" value="获取省份列表，查询上链轨迹表，通过省份分组，获取各省的总数，以升序的方式排序" style="whiteSpace=wrap;html=1;rounded=1;shadow=0;fontColor=#1D3557;strokeColor=#457B9D;strokeWidth=1;fillColor=#A8DADC;glass=0;" vertex="1" parent="WIyWlLk6GJQsqaUBKTNV-1">
          <mxGeometry x="525" y="280" width="160" height="60" as="geometry" />
        </mxCell>
        <mxCell id="hnCcET9oKe7-5iIsfZf4-206" style="edgeStyle=orthogonalEdgeStyle;curved=0;rounded=1;sketch=0;orthogonalLoop=1;jettySize=auto;html=1;strokeColor=#457B9D;fillColor=#A8DADC;fontColor=#1D3557;" edge="1" parent="WIyWlLk6GJQsqaUBKTNV-1" source="hnCcET9oKe7-5iIsfZf4-201" target="hnCcET9oKe7-5iIsfZf4-205">
          <mxGeometry relative="1" as="geometry" />
        </mxCell>
        <mxCell id="hnCcET9oKe7-5iIsfZf4-201" value="将所有省份的数据，以省份为key,数据为data放入到Map集合中" style="whiteSpace=wrap;html=1;rounded=1;shadow=0;fontColor=#1D3557;strokeColor=#457B9D;strokeWidth=1;fillColor=#A8DADC;glass=0;" vertex="1" parent="WIyWlLk6GJQsqaUBKTNV-1">
          <mxGeometry x="532.5" y="715" width="145" height="55" as="geometry" />
        </mxCell>
        <mxCell id="hnCcET9oKe7-5iIsfZf4-208" value="" style="edgeStyle=orthogonalEdgeStyle;curved=0;rounded=1;sketch=0;orthogonalLoop=1;jettySize=auto;html=1;strokeColor=#457B9D;fillColor=#A8DADC;fontColor=#1D3557;" edge="1" parent="WIyWlLk6GJQsqaUBKTNV-1" source="hnCcET9oKe7-5iIsfZf4-205" target="hnCcET9oKe7-5iIsfZf4-207">
          <mxGeometry relative="1" as="geometry" />
        </mxCell>
        <mxCell id="hnCcET9oKe7-5iIsfZf4-205" value="遍历map集合的数据，每个省份对应一个线程对应一个sheet页，将数据写入SXSSFWorkbook对象的sheet页中" style="whiteSpace=wrap;html=1;rounded=1;shadow=0;fontColor=#1D3557;strokeColor=#457B9D;strokeWidth=1;fillColor=#A8DADC;glass=0;" vertex="1" parent="WIyWlLk6GJQsqaUBKTNV-1">
          <mxGeometry x="531.25" y="850" width="147.5" height="90" as="geometry" />
        </mxCell>
        <mxCell id="hnCcET9oKe7-5iIsfZf4-209" style="edgeStyle=orthogonalEdgeStyle;curved=0;rounded=1;sketch=0;orthogonalLoop=1;jettySize=auto;html=1;strokeColor=#457B9D;fillColor=#A8DADC;fontColor=#1D3557;entryX=0.5;entryY=0;entryDx=0;entryDy=0;" edge="1" parent="WIyWlLk6GJQsqaUBKTNV-1" source="hnCcET9oKe7-5iIsfZf4-207" target="WIyWlLk6GJQsqaUBKTNV-11">
          <mxGeometry relative="1" as="geometry">
            <mxPoint x="605" y="1270" as="targetPoint" />
            <Array as="points">
              <mxPoint x="605" y="1130" />
              <mxPoint x="344" y="1130" />
            </Array>
          </mxGeometry>
        </mxCell>
        <mxCell id="hnCcET9oKe7-5iIsfZf4-207" value="把SXSSFWorkbook对象写入到execl中，输出到指定目录" style="whiteSpace=wrap;html=1;rounded=1;shadow=0;fontColor=#1D3557;strokeColor=#457B9D;strokeWidth=1;fillColor=#A8DADC;glass=0;" vertex="1" parent="WIyWlLk6GJQsqaUBKTNV-1">
          <mxGeometry x="545" y="1010" width="120" height="60" as="geometry" />
        </mxCell>
        <mxCell id="hnCcET9oKe7-5iIsfZf4-210" value="发送邮件" style="whiteSpace=wrap;html=1;rounded=1;shadow=0;fontColor=#1D3557;strokeColor=#457B9D;strokeWidth=1;fillColor=#A8DADC;glass=0;" vertex="1" parent="WIyWlLk6GJQsqaUBKTNV-1">
          <mxGeometry x="284" y="1300" width="120" height="60" as="geometry" />
        </mxCell>
        <mxCell id="hnCcET9oKe7-5iIsfZf4-212" value="订单上链统计报表" style="shape=table;html=1;whiteSpace=wrap;startSize=40;container=1;collapsible=0;childLayout=tableLayout;fontStyle=1;align=center;flipV=0;flipH=1;fillColor=#A8DADC;strokeColor=#457B9D;fontColor=#1D3557;" vertex="1" parent="WIyWlLk6GJQsqaUBKTNV-1">
          <mxGeometry x="20" y="-290" width="420" height="100" as="geometry" />
        </mxCell>
        <mxCell id="hnCcET9oKe7-5iIsfZf4-213" value="" style="shape=partialRectangle;html=1;whiteSpace=wrap;collapsible=0;dropTarget=0;pointerEvents=0;fillColor=none;top=0;left=0;bottom=0;right=0;points=[[0,0.5],[1,0.5]];portConstraint=eastwest;strokeColor=#457B9D;fontColor=#1D3557;" vertex="1" parent="hnCcET9oKe7-5iIsfZf4-212">
          <mxGeometry y="40" width="420" height="20" as="geometry" />
        </mxCell>
        <mxCell id="hnCcET9oKe7-5iIsfZf4-214" value="&lt;span&gt;省份名称&lt;/span&gt;" style="shape=partialRectangle;html=1;whiteSpace=wrap;connectable=0;fillColor=none;top=0;left=0;bottom=0;right=0;overflow=hidden;strokeColor=#457B9D;fontColor=#1D3557;" vertex="1" parent="hnCcET9oKe7-5iIsfZf4-213">
          <mxGeometry width="105" height="20" as="geometry" />
        </mxCell>
        <mxCell id="hnCcET9oKe7-5iIsfZf4-215" value="&lt;span&gt;省份账号&lt;/span&gt;" style="shape=partialRectangle;html=1;whiteSpace=wrap;connectable=0;fillColor=none;top=0;left=0;bottom=0;right=0;overflow=hidden;strokeColor=#457B9D;fontColor=#1D3557;" vertex="1" parent="hnCcET9oKe7-5iIsfZf4-213">
          <mxGeometry x="105" width="105" height="20" as="geometry" />
        </mxCell>
        <mxCell id="hnCcET9oKe7-5iIsfZf4-216" value="&lt;span&gt;上链状态&lt;/span&gt;" style="shape=partialRectangle;html=1;whiteSpace=wrap;connectable=0;fillColor=none;top=0;left=0;bottom=0;right=0;overflow=hidden;strokeColor=#457B9D;fontColor=#1D3557;" vertex="1" parent="hnCcET9oKe7-5iIsfZf4-213">
          <mxGeometry x="210" width="105" height="20" as="geometry" />
        </mxCell>
        <mxCell id="hnCcET9oKe7-5iIsfZf4-217" value="总数" style="shape=partialRectangle;html=1;whiteSpace=wrap;connectable=0;fillColor=none;top=0;left=0;bottom=0;right=0;overflow=hidden;strokeColor=#457B9D;fontColor=#1D3557;" vertex="1" parent="hnCcET9oKe7-5iIsfZf4-213">
          <mxGeometry x="315" width="105" height="20" as="geometry" />
        </mxCell>
        <mxCell id="hnCcET9oKe7-5iIsfZf4-218" value="" style="shape=partialRectangle;html=1;whiteSpace=wrap;collapsible=0;dropTarget=0;pointerEvents=0;fillColor=none;top=0;left=0;bottom=0;right=0;points=[[0,0.5],[1,0.5]];portConstraint=eastwest;strokeColor=#457B9D;fontColor=#1D3557;" vertex="1" parent="hnCcET9oKe7-5iIsfZf4-212">
          <mxGeometry y="60" width="420" height="20" as="geometry" />
        </mxCell>
        <mxCell id="hnCcET9oKe7-5iIsfZf4-219" style="shape=partialRectangle;html=1;whiteSpace=wrap;connectable=0;fillColor=none;top=0;left=0;bottom=0;right=0;overflow=hidden;strokeColor=#457B9D;fontColor=#1D3557;" vertex="1" parent="hnCcET9oKe7-5iIsfZf4-218">
          <mxGeometry width="105" height="20" as="geometry" />
        </mxCell>
        <mxCell id="hnCcET9oKe7-5iIsfZf4-220" style="shape=partialRectangle;html=1;whiteSpace=wrap;connectable=0;fillColor=none;top=0;left=0;bottom=0;right=0;overflow=hidden;strokeColor=#457B9D;fontColor=#1D3557;" vertex="1" parent="hnCcET9oKe7-5iIsfZf4-218">
          <mxGeometry x="105" width="105" height="20" as="geometry" />
        </mxCell>
        <mxCell id="hnCcET9oKe7-5iIsfZf4-221" value="" style="shape=partialRectangle;html=1;whiteSpace=wrap;connectable=0;fillColor=none;top=0;left=0;bottom=0;right=0;overflow=hidden;strokeColor=#457B9D;fontColor=#1D3557;" vertex="1" parent="hnCcET9oKe7-5iIsfZf4-218">
          <mxGeometry x="210" width="105" height="20" as="geometry" />
        </mxCell>
        <mxCell id="hnCcET9oKe7-5iIsfZf4-222" value="" style="shape=partialRectangle;html=1;whiteSpace=wrap;connectable=0;fillColor=none;top=0;left=0;bottom=0;right=0;overflow=hidden;strokeColor=#457B9D;fontColor=#1D3557;" vertex="1" parent="hnCcET9oKe7-5iIsfZf4-218">
          <mxGeometry x="315" width="105" height="20" as="geometry" />
        </mxCell>
        <mxCell id="hnCcET9oKe7-5iIsfZf4-223" value="" style="shape=partialRectangle;html=1;whiteSpace=wrap;collapsible=0;dropTarget=0;pointerEvents=0;fillColor=none;top=0;left=0;bottom=0;right=0;points=[[0,0.5],[1,0.5]];portConstraint=eastwest;strokeColor=#457B9D;fontColor=#1D3557;" vertex="1" parent="hnCcET9oKe7-5iIsfZf4-212">
          <mxGeometry y="80" width="420" height="20" as="geometry" />
        </mxCell>
        <mxCell id="hnCcET9oKe7-5iIsfZf4-224" style="shape=partialRectangle;html=1;whiteSpace=wrap;connectable=0;fillColor=none;top=0;left=0;bottom=0;right=0;overflow=hidden;strokeColor=#457B9D;fontColor=#1D3557;" vertex="1" parent="hnCcET9oKe7-5iIsfZf4-223">
          <mxGeometry width="105" height="20" as="geometry" />
        </mxCell>
        <mxCell id="hnCcET9oKe7-5iIsfZf4-225" style="shape=partialRectangle;html=1;whiteSpace=wrap;connectable=0;fillColor=none;top=0;left=0;bottom=0;right=0;overflow=hidden;strokeColor=#457B9D;fontColor=#1D3557;" vertex="1" parent="hnCcET9oKe7-5iIsfZf4-223">
          <mxGeometry x="105" width="105" height="20" as="geometry" />
        </mxCell>
        <mxCell id="hnCcET9oKe7-5iIsfZf4-226" value="" style="shape=partialRectangle;html=1;whiteSpace=wrap;connectable=0;fillColor=none;top=0;left=0;bottom=0;right=0;overflow=hidden;strokeColor=#457B9D;fontColor=#1D3557;" vertex="1" parent="hnCcET9oKe7-5iIsfZf4-223">
          <mxGeometry x="210" width="105" height="20" as="geometry" />
        </mxCell>
        <mxCell id="hnCcET9oKe7-5iIsfZf4-227" value="" style="shape=partialRectangle;html=1;whiteSpace=wrap;connectable=0;fillColor=none;top=0;left=0;bottom=0;right=0;overflow=hidden;strokeColor=#457B9D;fontColor=#1D3557;" vertex="1" parent="hnCcET9oKe7-5iIsfZf4-223">
          <mxGeometry x="315" width="105" height="20" as="geometry" />
        </mxCell>
        <mxCell id="hnCcET9oKe7-5iIsfZf4-228" value="订单上链详细报表" style="shape=table;html=1;whiteSpace=wrap;startSize=40;container=1;collapsible=0;childLayout=tableLayout;fontStyle=1;align=center;flipV=0;flipH=1;fillColor=#A8DADC;strokeColor=#457B9D;fontColor=#1D3557;" vertex="1" parent="WIyWlLk6GJQsqaUBKTNV-1">
          <mxGeometry x="20" y="-180" width="978" height="160" as="geometry" />
        </mxCell>
        <mxCell id="hnCcET9oKe7-5iIsfZf4-229" value="" style="shape=partialRectangle;html=1;whiteSpace=wrap;collapsible=0;dropTarget=0;pointerEvents=0;fillColor=none;top=0;left=0;bottom=0;right=0;points=[[0,0.5],[1,0.5]];portConstraint=eastwest;strokeColor=#457B9D;fontColor=#1D3557;" vertex="1" parent="hnCcET9oKe7-5iIsfZf4-228">
          <mxGeometry y="40" width="978" height="45" as="geometry" />
        </mxCell>
        <mxCell id="hnCcET9oKe7-5iIsfZf4-230" value="&lt;span&gt;省份名称&lt;/span&gt;" style="shape=partialRectangle;html=1;whiteSpace=wrap;connectable=0;fillColor=none;top=0;left=0;bottom=0;right=0;overflow=hidden;strokeColor=#457B9D;fontColor=#1D3557;" vertex="1" parent="hnCcET9oKe7-5iIsfZf4-229">
          <mxGeometry width="78" height="45" as="geometry" />
        </mxCell>
        <mxCell id="hnCcET9oKe7-5iIsfZf4-231" value="&lt;span&gt;省份账号&lt;/span&gt;" style="shape=partialRectangle;html=1;whiteSpace=wrap;connectable=0;fillColor=none;top=0;left=0;bottom=0;right=0;overflow=hidden;strokeColor=#457B9D;fontColor=#1D3557;" vertex="1" parent="hnCcET9oKe7-5iIsfZf4-229">
          <mxGeometry x="78" width="79" height="45" as="geometry" />
        </mxCell>
        <mxCell id="hnCcET9oKe7-5iIsfZf4-232" value="权益订单号" style="shape=partialRectangle;html=1;whiteSpace=wrap;connectable=0;fillColor=none;top=0;left=0;bottom=0;right=0;overflow=hidden;strokeColor=#457B9D;fontColor=#1D3557;" vertex="1" parent="hnCcET9oKe7-5iIsfZf4-229">
          <mxGeometry x="157" width="78" height="45" as="geometry" />
        </mxCell>
        <mxCell id="hnCcET9oKe7-5iIsfZf4-233" value="能开主订单号" style="shape=partialRectangle;html=1;whiteSpace=wrap;connectable=0;fillColor=none;top=0;left=0;bottom=0;right=0;overflow=hidden;strokeColor=#457B9D;fontColor=#1D3557;" vertex="1" parent="hnCcET9oKe7-5iIsfZf4-229">
          <mxGeometry x="235" width="78" height="45" as="geometry" />
        </mxCell>
        <mxCell id="hnCcET9oKe7-5iIsfZf4-234" value="能开子订单号" style="shape=partialRectangle;html=1;whiteSpace=wrap;connectable=0;fillColor=none;top=0;left=0;bottom=0;right=0;overflow=hidden;strokeColor=#457B9D;fontColor=#1D3557;" vertex="1" parent="hnCcET9oKe7-5iIsfZf4-229">
          <mxGeometry x="313" width="79" height="45" as="geometry" />
        </mxCell>
        <mxCell id="hnCcET9oKe7-5iIsfZf4-235" value="上链交易编号" style="shape=partialRectangle;html=1;whiteSpace=wrap;connectable=0;fillColor=none;top=0;left=0;bottom=0;right=0;overflow=hidden;strokeColor=#457B9D;fontColor=#1D3557;" vertex="1" parent="hnCcET9oKe7-5iIsfZf4-229">
          <mxGeometry x="392" width="78" height="45" as="geometry" />
        </mxCell>
        <mxCell id="hnCcET9oKe7-5iIsfZf4-236" value="块编码" style="shape=partialRectangle;html=1;whiteSpace=wrap;connectable=0;fillColor=none;top=0;left=0;bottom=0;right=0;overflow=hidden;strokeColor=#457B9D;fontColor=#1D3557;" vertex="1" parent="hnCcET9oKe7-5iIsfZf4-229">
          <mxGeometry x="470" width="78" height="45" as="geometry" />
        </mxCell>
        <mxCell id="hnCcET9oKe7-5iIsfZf4-237" value="上链时间" style="shape=partialRectangle;html=1;whiteSpace=wrap;connectable=0;fillColor=none;top=0;left=0;bottom=0;right=0;overflow=hidden;strokeColor=#457B9D;fontColor=#1D3557;" vertex="1" parent="hnCcET9oKe7-5iIsfZf4-229">
          <mxGeometry x="548" width="78" height="45" as="geometry" />
        </mxCell>
        <mxCell id="hnCcET9oKe7-5iIsfZf4-238" value="链上订单状态" style="shape=partialRectangle;html=1;whiteSpace=wrap;connectable=0;fillColor=none;top=0;left=0;bottom=0;right=0;overflow=hidden;strokeColor=#457B9D;fontColor=#1D3557;" vertex="1" parent="hnCcET9oKe7-5iIsfZf4-229">
          <mxGeometry x="626" width="79" height="45" as="geometry" />
        </mxCell>
        <mxCell id="hnCcET9oKe7-5iIsfZf4-239" value="链上数据更新时间" style="shape=partialRectangle;html=1;whiteSpace=wrap;connectable=0;fillColor=none;top=0;left=0;bottom=0;right=0;overflow=hidden;strokeColor=#457B9D;fontColor=#1D3557;" vertex="1" parent="hnCcET9oKe7-5iIsfZf4-229">
          <mxGeometry x="705" width="78" height="45" as="geometry" />
        </mxCell>
        <mxCell id="hnCcET9oKe7-5iIsfZf4-240" value="订单处理时长（更新时间-上链时间）" style="shape=partialRectangle;html=1;whiteSpace=wrap;connectable=0;fillColor=none;top=0;left=0;bottom=0;right=0;overflow=hidden;strokeColor=#457B9D;fontColor=#1D3557;" vertex="1" parent="hnCcET9oKe7-5iIsfZf4-229">
          <mxGeometry x="783" width="195" height="45" as="geometry" />
        </mxCell>
        <mxCell id="hnCcET9oKe7-5iIsfZf4-241" value="" style="shape=partialRectangle;html=1;whiteSpace=wrap;collapsible=0;dropTarget=0;pointerEvents=0;fillColor=none;top=0;left=0;bottom=0;right=0;points=[[0,0.5],[1,0.5]];portConstraint=eastwest;strokeColor=#457B9D;fontColor=#1D3557;" vertex="1" parent="hnCcET9oKe7-5iIsfZf4-228">
          <mxGeometry y="85" width="978" height="37" as="geometry" />
        </mxCell>
        <mxCell id="hnCcET9oKe7-5iIsfZf4-242" style="shape=partialRectangle;html=1;whiteSpace=wrap;connectable=0;fillColor=none;top=0;left=0;bottom=0;right=0;overflow=hidden;strokeColor=#457B9D;fontColor=#1D3557;" vertex="1" parent="hnCcET9oKe7-5iIsfZf4-241">
          <mxGeometry width="78" height="37" as="geometry" />
        </mxCell>
        <mxCell id="hnCcET9oKe7-5iIsfZf4-243" style="shape=partialRectangle;html=1;whiteSpace=wrap;connectable=0;fillColor=none;top=0;left=0;bottom=0;right=0;overflow=hidden;strokeColor=#457B9D;fontColor=#1D3557;" vertex="1" parent="hnCcET9oKe7-5iIsfZf4-241">
          <mxGeometry x="78" width="79" height="37" as="geometry" />
        </mxCell>
        <mxCell id="hnCcET9oKe7-5iIsfZf4-244" value="" style="shape=partialRectangle;html=1;whiteSpace=wrap;connectable=0;fillColor=none;top=0;left=0;bottom=0;right=0;overflow=hidden;strokeColor=#457B9D;fontColor=#1D3557;" vertex="1" parent="hnCcET9oKe7-5iIsfZf4-241">
          <mxGeometry x="157" width="78" height="37" as="geometry" />
        </mxCell>
        <mxCell id="hnCcET9oKe7-5iIsfZf4-245" value="" style="shape=partialRectangle;html=1;whiteSpace=wrap;connectable=0;fillColor=none;top=0;left=0;bottom=0;right=0;overflow=hidden;strokeColor=#457B9D;fontColor=#1D3557;" vertex="1" parent="hnCcET9oKe7-5iIsfZf4-241">
          <mxGeometry x="235" width="78" height="37" as="geometry" />
        </mxCell>
        <mxCell id="hnCcET9oKe7-5iIsfZf4-246" style="shape=partialRectangle;html=1;whiteSpace=wrap;connectable=0;fillColor=none;top=0;left=0;bottom=0;right=0;overflow=hidden;strokeColor=#457B9D;fontColor=#1D3557;" vertex="1" parent="hnCcET9oKe7-5iIsfZf4-241">
          <mxGeometry x="313" width="79" height="37" as="geometry" />
        </mxCell>
        <mxCell id="hnCcET9oKe7-5iIsfZf4-247" style="shape=partialRectangle;html=1;whiteSpace=wrap;connectable=0;fillColor=none;top=0;left=0;bottom=0;right=0;overflow=hidden;strokeColor=#457B9D;fontColor=#1D3557;" vertex="1" parent="hnCcET9oKe7-5iIsfZf4-241">
          <mxGeometry x="392" width="78" height="37" as="geometry" />
        </mxCell>
        <mxCell id="hnCcET9oKe7-5iIsfZf4-248" style="shape=partialRectangle;html=1;whiteSpace=wrap;connectable=0;fillColor=none;top=0;left=0;bottom=0;right=0;overflow=hidden;strokeColor=#457B9D;fontColor=#1D3557;" vertex="1" parent="hnCcET9oKe7-5iIsfZf4-241">
          <mxGeometry x="470" width="78" height="37" as="geometry" />
        </mxCell>
        <mxCell id="hnCcET9oKe7-5iIsfZf4-249" style="shape=partialRectangle;html=1;whiteSpace=wrap;connectable=0;fillColor=none;top=0;left=0;bottom=0;right=0;overflow=hidden;strokeColor=#457B9D;fontColor=#1D3557;" vertex="1" parent="hnCcET9oKe7-5iIsfZf4-241">
          <mxGeometry x="548" width="78" height="37" as="geometry" />
        </mxCell>
        <mxCell id="hnCcET9oKe7-5iIsfZf4-250" style="shape=partialRectangle;html=1;whiteSpace=wrap;connectable=0;fillColor=none;top=0;left=0;bottom=0;right=0;overflow=hidden;strokeColor=#457B9D;fontColor=#1D3557;" vertex="1" parent="hnCcET9oKe7-5iIsfZf4-241">
          <mxGeometry x="626" width="79" height="37" as="geometry" />
        </mxCell>
        <mxCell id="hnCcET9oKe7-5iIsfZf4-251" style="shape=partialRectangle;html=1;whiteSpace=wrap;connectable=0;fillColor=none;top=0;left=0;bottom=0;right=0;overflow=hidden;strokeColor=#457B9D;fontColor=#1D3557;" vertex="1" parent="hnCcET9oKe7-5iIsfZf4-241">
          <mxGeometry x="705" width="78" height="37" as="geometry" />
        </mxCell>
        <mxCell id="hnCcET9oKe7-5iIsfZf4-252" style="shape=partialRectangle;html=1;whiteSpace=wrap;connectable=0;fillColor=none;top=0;left=0;bottom=0;right=0;overflow=hidden;strokeColor=#457B9D;fontColor=#1D3557;" vertex="1" parent="hnCcET9oKe7-5iIsfZf4-241">
          <mxGeometry x="783" width="195" height="37" as="geometry" />
        </mxCell>
        <mxCell id="hnCcET9oKe7-5iIsfZf4-253" value="" style="shape=partialRectangle;html=1;whiteSpace=wrap;collapsible=0;dropTarget=0;pointerEvents=0;fillColor=none;top=0;left=0;bottom=0;right=0;points=[[0,0.5],[1,0.5]];portConstraint=eastwest;strokeColor=#457B9D;fontColor=#1D3557;" vertex="1" parent="hnCcET9oKe7-5iIsfZf4-228">
          <mxGeometry y="122" width="978" height="38" as="geometry" />
        </mxCell>
        <mxCell id="hnCcET9oKe7-5iIsfZf4-254" style="shape=partialRectangle;html=1;whiteSpace=wrap;connectable=0;fillColor=none;top=0;left=0;bottom=0;right=0;overflow=hidden;strokeColor=#457B9D;fontColor=#1D3557;" vertex="1" parent="hnCcET9oKe7-5iIsfZf4-253">
          <mxGeometry width="78" height="38" as="geometry" />
        </mxCell>
        <mxCell id="hnCcET9oKe7-5iIsfZf4-255" style="shape=partialRectangle;html=1;whiteSpace=wrap;connectable=0;fillColor=none;top=0;left=0;bottom=0;right=0;overflow=hidden;strokeColor=#457B9D;fontColor=#1D3557;" vertex="1" parent="hnCcET9oKe7-5iIsfZf4-253">
          <mxGeometry x="78" width="79" height="38" as="geometry" />
        </mxCell>
        <mxCell id="hnCcET9oKe7-5iIsfZf4-256" value="" style="shape=partialRectangle;html=1;whiteSpace=wrap;connectable=0;fillColor=none;top=0;left=0;bottom=0;right=0;overflow=hidden;strokeColor=#457B9D;fontColor=#1D3557;" vertex="1" parent="hnCcET9oKe7-5iIsfZf4-253">
          <mxGeometry x="157" width="78" height="38" as="geometry" />
        </mxCell>
        <mxCell id="hnCcET9oKe7-5iIsfZf4-257" value="" style="shape=partialRectangle;html=1;whiteSpace=wrap;connectable=0;fillColor=none;top=0;left=0;bottom=0;right=0;overflow=hidden;strokeColor=#457B9D;fontColor=#1D3557;" vertex="1" parent="hnCcET9oKe7-5iIsfZf4-253">
          <mxGeometry x="235" width="78" height="38" as="geometry" />
        </mxCell>
        <mxCell id="hnCcET9oKe7-5iIsfZf4-258" style="shape=partialRectangle;html=1;whiteSpace=wrap;connectable=0;fillColor=none;top=0;left=0;bottom=0;right=0;overflow=hidden;strokeColor=#457B9D;fontColor=#1D3557;" vertex="1" parent="hnCcET9oKe7-5iIsfZf4-253">
          <mxGeometry x="313" width="79" height="38" as="geometry" />
        </mxCell>
        <mxCell id="hnCcET9oKe7-5iIsfZf4-259" style="shape=partialRectangle;html=1;whiteSpace=wrap;connectable=0;fillColor=none;top=0;left=0;bottom=0;right=0;overflow=hidden;strokeColor=#457B9D;fontColor=#1D3557;" vertex="1" parent="hnCcET9oKe7-5iIsfZf4-253">
          <mxGeometry x="392" width="78" height="38" as="geometry" />
        </mxCell>
        <mxCell id="hnCcET9oKe7-5iIsfZf4-260" style="shape=partialRectangle;html=1;whiteSpace=wrap;connectable=0;fillColor=none;top=0;left=0;bottom=0;right=0;overflow=hidden;strokeColor=#457B9D;fontColor=#1D3557;" vertex="1" parent="hnCcET9oKe7-5iIsfZf4-253">
          <mxGeometry x="470" width="78" height="38" as="geometry" />
        </mxCell>
        <mxCell id="hnCcET9oKe7-5iIsfZf4-261" style="shape=partialRectangle;html=1;whiteSpace=wrap;connectable=0;fillColor=none;top=0;left=0;bottom=0;right=0;overflow=hidden;strokeColor=#457B9D;fontColor=#1D3557;" vertex="1" parent="hnCcET9oKe7-5iIsfZf4-253">
          <mxGeometry x="548" width="78" height="38" as="geometry" />
        </mxCell>
        <mxCell id="hnCcET9oKe7-5iIsfZf4-262" style="shape=partialRectangle;html=1;whiteSpace=wrap;connectable=0;fillColor=none;top=0;left=0;bottom=0;right=0;overflow=hidden;strokeColor=#457B9D;fontColor=#1D3557;" vertex="1" parent="hnCcET9oKe7-5iIsfZf4-253">
          <mxGeometry x="626" width="79" height="38" as="geometry" />
        </mxCell>
        <mxCell id="hnCcET9oKe7-5iIsfZf4-263" style="shape=partialRectangle;html=1;whiteSpace=wrap;connectable=0;fillColor=none;top=0;left=0;bottom=0;right=0;overflow=hidden;strokeColor=#457B9D;fontColor=#1D3557;" vertex="1" parent="hnCcET9oKe7-5iIsfZf4-253">
          <mxGeometry x="705" width="78" height="38" as="geometry" />
        </mxCell>
        <mxCell id="hnCcET9oKe7-5iIsfZf4-264" style="shape=partialRectangle;html=1;whiteSpace=wrap;connectable=0;fillColor=none;top=0;left=0;bottom=0;right=0;overflow=hidden;strokeColor=#457B9D;fontColor=#1D3557;" vertex="1" parent="hnCcET9oKe7-5iIsfZf4-253">
          <mxGeometry x="783" width="195" height="38" as="geometry" />
        </mxCell>
        <mxCell id="hnCcET9oKe7-5iIsfZf4-265" value="&lt;span style=&quot;font-weight: 400 ; text-align: left&quot;&gt;订单上链记录跟踪表&lt;/span&gt;" style="swimlane;fillColor=none;html=1;startSize=40;strokeColor=#457B9D;fontColor=#1D3557;" vertex="1" parent="WIyWlLk6GJQsqaUBKTNV-1">
          <mxGeometry x="20" y="-730" width="660" height="430" as="geometry" />
        </mxCell>
        <mxCell id="hnCcET9oKe7-5iIsfZf4-266" value="&lt;div&gt;CREATE TABLE `t_on_chain_log` (&lt;/div&gt;&lt;div&gt;&amp;nbsp; `id` varchar(32) NOT NULL COMMENT &#39;权益主订单ID&#39;,&lt;/div&gt;&lt;div&gt;&amp;nbsp; `nk_order_id` varchar(32) DEFAULT NULL COMMENT &#39;能开主订单编码&#39;,&lt;/div&gt;&lt;div&gt;&amp;nbsp; `nk_suborder_id` varchar(32) DEFAULT NULL COMMENT &#39;能开子订单编码&#39;,&lt;/div&gt;&lt;div&gt;&amp;nbsp; `transaction_id` varchar(255) DEFAULT NULL COMMENT &#39;上链交易编号&#39;,&lt;/div&gt;&lt;div&gt;&amp;nbsp; `block_num` varchar(10) DEFAULT NULL COMMENT &#39;块编号&#39;,&lt;/div&gt;&lt;div&gt;&amp;nbsp; `is_issue` int(1) DEFAULT NULL COMMENT &#39;是否已通过现有接口完成OSPB076下发(0 否，1 是)&#39;,&lt;/div&gt;&lt;div&gt;&amp;nbsp; `issue_time` varchar(14) DEFAULT NULL COMMENT &#39;接口下发时间&#39;,&lt;/div&gt;&lt;div&gt;&amp;nbsp; `on_chain_send_time` varchar(14) DEFAULT NULL COMMENT &#39;上链请求发送时间&#39;,&lt;/div&gt;&lt;div&gt;&amp;nbsp; `on_chain_confirm_time` varchar(14) DEFAULT NULL COMMENT &#39;上链成功确认时间&#39;,&lt;/div&gt;&lt;div&gt;&amp;nbsp; `is_sucess_on_chain` int(1) DEFAULT NULL COMMENT &#39;是否上链成功(0 否，1 是)&#39;,&lt;/div&gt;&lt;div&gt;&amp;nbsp; `is_deduction_state` varchar(14) DEFAULT &#39;&#39; COMMENT &#39;022接口返回的状态结果PS-扣费成功，PU-扣费不成功&#39;,&lt;/div&gt;&lt;div&gt;&amp;nbsp; `is_deduction` int(1) DEFAULT NULL COMMENT &#39;是否通过现有接口获取到省公司返回的扣费结果(0 否，1 是)&#39;,&lt;/div&gt;&lt;div&gt;&amp;nbsp; `deduction_time` varchar(14) DEFAULT NULL COMMENT &#39;扣费结果获取时间（原流程）&#39;,&lt;/div&gt;&lt;div&gt;&amp;nbsp; `online_search_time` varchar(14) DEFAULT NULL COMMENT &#39;链上结果检索获取时间&#39;,&lt;/div&gt;&lt;div&gt;&amp;nbsp; `online_search_final_state` varchar(14) DEFAULT &#39;&#39; COMMENT &#39;链上状态结果检索ps：扣费成功；pu:扣费失败&#39;,&lt;/div&gt;&lt;div&gt;&amp;nbsp;&lt;font color=&quot;#ff0000&quot;&gt; `online_update_time` varchar(14) DEFAULT NULL COMMENT &#39;省测更新链上数据时间&#39;,&lt;/font&gt;&lt;/div&gt;&lt;div&gt;&lt;font color=&quot;#ff0000&quot;&gt;&amp;nbsp; `province_name` varchar(14) DEFAULT NULL COMMENT &#39;省份名称&#39;,&lt;/font&gt;&lt;/div&gt;&lt;div&gt;&lt;font color=&quot;#ff0000&quot;&gt;&amp;nbsp; `province_actor` varchar(14) DEFAULT NULL COMMENT &#39;省测账号&#39;,&lt;/font&gt;&lt;/div&gt;&lt;div&gt;&amp;nbsp; PRIMARY KEY (`id`) USING BTREE&lt;/div&gt;&lt;div&gt;) ENGINE=InnoDB DEFAULT CHARSET=utf8mb4 COMMENT=&#39;订单上链记录跟踪表&#39;;&lt;/div&gt;" style="text;html=1;align=left;verticalAlign=middle;resizable=0;points=[];autosize=1;fontColor=#1D3557;" vertex="1" parent="hnCcET9oKe7-5iIsfZf4-265">
          <mxGeometry x="12.5" y="56" width="620" height="300" as="geometry" />
        </mxCell>
        <mxCell id="hnCcET9oKe7-5iIsfZf4-267" value="改造点一：订购的时候为订单生成订单轨迹，为订单轨迹添加字段&lt;font color=&quot;#ff0000&quot;&gt;省份名称，省份账号&lt;/font&gt;&lt;br&gt;改造点二：定时任务去拉去链上数据的时候，发现链上数据省测已经更改，将&lt;font color=&quot;#ff0000&quot;&gt;省测更改时间&lt;/font&gt;落入上链轨迹表中" style="text;html=1;align=left;verticalAlign=middle;resizable=0;points=[];autosize=1;fontColor=#1D3557;" vertex="1" parent="hnCcET9oKe7-5iIsfZf4-265">
          <mxGeometry x="12.5" y="370" width="590" height="30" as="geometry" />
        </mxCell>
        <mxCell id="hnCcET9oKe7-5iIsfZf4-268" value="上线的时候需要补数据" style="text;html=1;strokeColor=none;fillColor=none;align=center;verticalAlign=middle;whiteSpace=wrap;rounded=0;sketch=0;fontColor=#1D3557;" vertex="1" parent="WIyWlLk6GJQsqaUBKTNV-1">
          <mxGeometry x="695" y="-400" width="130" height="30" as="geometry" />
        </mxCell>
        <mxCell id="hnCcET9oKe7-5iIsfZf4-269" value="调用076接口返回jnull 需要重发" style="text;html=1;align=center;verticalAlign=middle;resizable=0;points=[];autosize=1;fontColor=#1D3557;" vertex="1" parent="WIyWlLk6GJQsqaUBKTNV-1">
          <mxGeometry x="680" y="-480" width="180" height="20" as="geometry" />
        </mxCell>
      </root>
    </mxGraphModel>
  </diagram>
</mxfile>
